<svg xmlns="http://www.w3.org/2000/svg" xmlns:xlink="http://www.w3.org/1999/xlink" width="15" height="15" viewBox="0 0 15 15" fill="none"><g opacity="1"  transform="translate(0 0)  rotate(0)"><mask id="bg-mask-0" fill="white"><use transform="translate(0 0)  rotate(NaN)" xlink:href="#path_0"></use></mask><g mask="url(#bg-mask-0)" ><path id="路径 1" fill-rule="evenodd" style="fill:#1F71FF" opacity="0.9" d="M14.06,0c0.57,0 0.94,0.38 0.94,0.94v13.12c0,0.57 -0.37,0.94 -0.94,0.94h-13.12c-0.56,0 -0.94,-0.37 -0.94,-0.94v-13.12c0,-0.56 0.38,-0.94 0.94,-0.94zM14.06,1.88c0,-0.57 -0.37,-0.94 -0.93,-0.94h-11.25c-0.57,0 -0.94,0.37 -0.94,0.94v11.25c0,0.56 0.37,0.93 0.94,0.93h11.25c0.56,0 0.93,-0.37 0.93,-0.93zM10.5,4.03c0.38,-0.37 1.03,-0.37 1.41,0c0.37,0.38 0.37,1.03 0,1.41l-5.35,5.44c-0.28,0.18 -0.47,0.28 -0.75,0.28c-0.28,0 -0.56,-0.1 -0.75,-0.28l-1.97,-2.07c-0.37,-0.37 -0.37,-1.03 0,-1.4c0.38,-0.38 1.04,-0.38 1.41,0l1.31,1.31z"></path></g></g><defs><rect id="path_0" x="0" y="0" width="15" height="15" /></defs></svg>