<svg xmlns="http://www.w3.org/2000/svg" xmlns:xlink="http://www.w3.org/1999/xlink" width="40" height="40" viewBox="0 0 40 40" fill="none"><g opacity="1"  transform="translate(0 0)  rotate(0)"><mask id="bg-mask-0" fill="white"><use transform="translate(0 0)  rotate(NaN)" xlink:href="#path_0"></use></mask><g mask="url(#bg-mask-0)" ><path id="路径 1" fill-rule="evenodd" style="fill:#FFFFFF" opacity="1" d="M37.1367 35.0633L37.1367 9.13333C37.1367 8.60333 36.6667 8.13333 36.1367 8.13333C35.5967 8.13333 35.1367 8.60333 35.1367 9.13333L35.1367 35.0033C35.1367 35.8633 34.3967 36.6033 33.5367 36.6033L6.39667 36.6033C5.53667 36.6033 4.79667 35.8633 4.79667 35.0033L4.79667 4.93333C4.79667 4.06333 5.53667 3.33333 6.46667 3.33333L28.8667 3.33333C29.3967 3.33333 29.8667 2.86333 29.8667 2.33333C29.8667 1.80333 29.3967 1.33333 28.8667 1.33333L6.46667 1.33333C4.46667 1.33333 2.86667 2.93333 2.86667 4.93333L2.86667 35.0633C2.86667 37.0633 4.46667 38.6633 6.46667 38.6633L33.5367 38.6633C35.5367 38.6633 37.1967 37.0633 37.1367 35.0633Z"></path><path id="路径 2" fill-rule="evenodd" style="fill:#FFFFFF" opacity="1" d="M28.8633 20C28.8633 19.47 28.4033 19 27.8633 19L12.1333 19C11.6033 19 11.1333 19.47 11.1333 20C11.1333 20.53 11.6033 21 12.1333 21L27.8633 21C28.4033 21 28.8633 20.53 28.8633 20Z"></path><path id="路径 3" fill-rule="evenodd" style="fill:#FFFFFF" opacity="1" d="M21 27.8633L21 12.1333C21 11.6033 20.53 11.1333 20 11.1333C19.47 11.1333 19 11.6033 19 12.1333L19 27.8633C19 28.4033 19.47 28.8633 20 28.8633C20.53 28.8633 21 28.4033 21 27.8633Z"></path><path id="路径 4" fill-rule="evenodd" style="fill:#FFFFFF" opacity="1" d="M36.1967,10.1333h-4.73c-2,0 -3.6,-1.59997 -3.6,-3.59997v-4.2c0,-0.4 0.27,-0.73 0.6,-0.93c0.33,-0.14 0.8,-0.07 1.07,0.2l7.33,6.8c0.33,0.26 0.4,0.73 0.27,1.06c-0.2,0.4 -0.54,0.66997 -0.94,0.66997zM29.8667,6.46333c0,0.87 0.73,1.6 1.6,1.6h2.13l-3.73,-3.46z"></path><path id="路径 5" fill-rule="evenodd" style="fill:#FFFFFF" opacity="0.3" d="M26.6033 35.3967L26.6033 15.5367C26.6033 14.0667 25.4033 12.8667 23.9333 12.8667L6.20334 12.8667C4.73334 12.8667 3.53334 14.0667 3.53334 15.5367L3.53334 35.3967C3.53334 36.8667 4.73334 38.0667 6.20334 38.0667L23.9333 38.0667C25.4033 38.0667 26.6033 36.8667 26.6033 35.3967Z"></path></g></g><defs><rect id="path_0" x="0" y="0" width="40" height="40" /></defs></svg>