<svg xmlns="http://www.w3.org/2000/svg" xmlns:xlink="http://www.w3.org/1999/xlink" width="22" height="22" viewBox="0 0 22 22" fill="none"><g opacity="1"  transform="translate(0 0)  rotate(0)"><mask id="bg-mask-0" fill="white"><use transform="translate(0 0)  rotate(NaN)" xlink:href="#path_0"></use></mask><g mask="url(#bg-mask-0)" ><path id="路径 1" fill-rule="evenodd" style="fill:#000000" opacity="0.7" d="M10.8244,1.78934c-2.84001,0.11 -5.14001,2.55 -5.14001,5.48v4.47996c0,0.52 -0.24,1.01 -0.66,1.32c-0.58,0.43 -1.03,1.01 -1.32,1.67h14.59001c-0.28,-0.67 -0.74,-1.25 -1.32,-1.69c-0.42,-0.31 -0.66,-0.8 -0.66,-1.32v-4.61996c-0.01,-2.94 -2.38,-5.31 -5.31,-5.32zM11.0044,0.13934v0c3.84,0 6.96,3.12 6.96,6.97v4.61996c0.87,0.65 1.54,1.52 1.94,2.53c0.19,0.48 0.12,1.02 -0.17,1.45c-0.29,0.42 -0.78,0.68 -1.3,0.67h-14.86001c-0.51,0.01 -1,-0.25 -1.29,-0.67c-0.3,-0.43 -0.36,-0.97 -0.17,-1.45c0.39,-1.01 1.06,-1.88 1.92,-2.53v-4.45996c0,-3.77 2.93,-6.99 6.71001,-7.13z"></path><path id="路径 2" fill-rule="evenodd" style="fill:#1F71FF" opacity="0.9" d="M15.2527 18.2663C15.3227 17.8163 15.0227 17.3963 14.5727 17.3163C14.1227 17.2463 13.6927 17.5463 13.6227 17.9963C13.4027 19.2763 12.2927 20.2063 11.0027 20.2063C9.70268 20.2063 8.60268 19.2763 8.38268 17.9963C8.30268 17.5463 7.88268 17.2463 7.43268 17.3163C6.98268 17.3963 6.68268 17.8163 6.75268 18.2663C7.09268 20.3463 8.89268 21.8663 11.0027 21.8563C13.1027 21.8663 14.9027 20.3463 15.2527 18.2663Z"></path></g></g><defs><rect id="path_0" x="0" y="0" width="22" height="22" /></defs></svg>