<svg xmlns="http://www.w3.org/2000/svg" xmlns:xlink="http://www.w3.org/1999/xlink" width="16" height="16" viewBox="0 0 16 16" fill="none"><g opacity="1"  transform="translate(0 0)  rotate(0)"><mask id="bg-mask-0" fill="white"><use transform="translate(0 0)  rotate(NaN)" xlink:href="#path_0"></use></mask><g mask="url(#bg-mask-0)" ><path id="路径 1" fill-rule="evenodd" style="fill:#1F71FF" opacity="0" d="M0 16L16 16L16 0L0 0L0 16Z"></path><path id="路径 2" fill-rule="evenodd" style="fill:#1F71FF" opacity="0.9" d="M3.72998,8.0032c0,0.59 -0.47,1.06 -1.06,1.06c-0.59,0 -1.07,-0.47 -1.07,-1.06c0,-0.38 0.2,-0.74 0.53,-0.93c0.33,-0.19 0.74,-0.19 1.07,0c0.33,0.19 0.53,0.55 0.53,0.93zM7.99998,6.9332c0.38,0 0.73,0.2 0.92,0.53c0.19,0.33 0.19,0.74 0,1.07c-0.19,0.33 -0.54,0.53 -0.92,0.53c-0.59,0 -1.07,-0.47 -1.07,-1.06c0,-0.59 0.48,-1.07 1.07,-1.07zM13.33,6.9332c0.38,0 0.74,0.2 0.93,0.53c0.19,0.33 0.19,0.74 0,1.07c-0.19,0.33 -0.55,0.53 -0.93,0.53c-0.59,0 -1.06,-0.47 -1.06,-1.06c0,-0.59 0.47,-1.07 1.06,-1.07z"></path><g opacity="1"  transform="translate(0 232)  rotate(0)"><mask id="bg-mask-1" fill="white"><use transform="translate(0 0)  rotate(0)" xlink:href="#path_1"></use></mask><g mask="url(#bg-mask-1)" ><path id="路径 1" fill-rule="evenodd" style="fill:#1F71FF" opacity="0.009000000000000001" d="M0 16L16 16L16 0L0 0L0 16Z"></path><path id="路径 2" fill-rule="evenodd" style="fill:#1F71FF" opacity="0.9" d="M3.72998,8.0032c0,0.59 -0.47,1.06 -1.06,1.06c-0.59,0 -1.07,-0.47 -1.07,-1.06c0,-0.38 0.2,-0.74 0.53,-0.93c0.33,-0.19 0.74,-0.19 1.07,0c0.33,0.19 0.53,0.55 0.53,0.93zM7.99998,6.9332c0.38,0 0.73,0.2 0.92,0.53c0.19,0.33 0.19,0.74 0,1.07c-0.19,0.33 -0.54,0.53 -0.92,0.53c-0.59,0 -1.07,-0.47 -1.07,-1.06c0,-0.59 0.48,-1.07 1.07,-1.07zM13.33,6.9332c0.38,0 0.74,0.2 0.93,0.53c0.19,0.33 0.19,0.74 0,1.07c-0.19,0.33 -0.55,0.53 -0.93,0.53c-0.59,0 -1.06,-0.47 -1.06,-1.06c0,-0.59 0.47,-1.07 1.06,-1.07z"></path></g></g></g></g><defs><rect id="path_0" x="0" y="0" width="16" height="16" /><rect id="path_1" x="0" y="0" width="16" height="16" /></defs></svg>