<svg xmlns="http://www.w3.org/2000/svg" xmlns:xlink="http://www.w3.org/1999/xlink" width="20" height="20" viewBox="0 0 20 20" fill="none"><g opacity="1"  transform="translate(0 0)  rotate(0)"><mask id="bg-mask-0" fill="white"><use transform="translate(0 0)  rotate(NaN)" xlink:href="#path_0"></use></mask><g mask="url(#bg-mask-0)" ><path id="路径 1" fill-rule="evenodd" style="fill:#FFFFFF" opacity="1" d="M10.0033,0.83334c5.06,0 9.16,4.1 9.16,9.16996c0,5.06 -4.1,9.16 -9.16,9.16c-5.06997,0 -9.16997,-4.1 -9.16997,-9.16c0,-5.06996 4.1,-9.16996 9.16997,-9.16996zM13.8433,10.6133c0.2,-0.14 0.32,-0.37 0.32,-0.61c0,-0.24996 -0.12,-0.47996 -0.32,-0.60996l-5.20997,-3.44c-0.23,-0.15 -0.51,-0.16 -0.75,-0.03c-0.24,0.12 -0.38,0.37 -0.38,0.64v6.86996c0,0.27 0.14,0.52 0.38,0.65c0.24,0.12 0.52,0.11 0.75,-0.04l5.20997,-3.43z"></path></g></g><defs><rect id="path_0" x="0" y="0" width="20" height="20" /></defs></svg>