<svg xmlns="http://www.w3.org/2000/svg" xmlns:xlink="http://www.w3.org/1999/xlink" width="16" height="16" viewBox="0 0 16 16" fill="none"><g opacity="1"  transform="translate(0 0)  rotate(0)"><mask id="bg-mask-0" fill="white"><use transform="translate(0 0)  rotate(NaN)" xlink:href="#path_0"></use></mask><g mask="url(#bg-mask-0)" ><path id="路径 1" fill-rule="evenodd" style="fill:#FFFFFF" opacity="1" d="M14.6267 12.4433L14.1367 11.9533C14.0467 11.8633 13.8667 11.8633 13.7767 11.9533C13.6867 12.0433 13.6867 12.2233 13.7767 12.3133L14.4467 13.0233C14.4867 13.0633 14.5367 13.1133 14.6267 13.1133C14.6667 13.1133 14.7567 13.0633 14.7967 13.0233L15.4667 12.3533C15.5067 12.3133 15.5567 12.2633 15.5567 12.1733C15.5567 12.1333 15.5067 12.0433 15.4667 12.0033L14.0867 10.6233C14.0467 10.5733 13.9967 10.5333 13.9067 10.5333C13.8667 10.5333 13.7767 10.5733 13.7367 10.6233L10.3567 14.0433C10.3067 14.0933 10.2667 14.1333 10.2667 14.2233L10.2667 15.5533C10.2667 15.6933 10.3967 15.8233 10.5367 15.8233L11.9067 15.8233C11.9567 15.8233 12.0467 15.7733 12.0867 15.7333L14.1367 13.6933C14.2267 13.6033 14.2267 13.4233 14.1367 13.3333C14.0467 13.2433 13.8667 13.2433 13.7767 13.3333L11.7367 15.2433L10.7567 15.2433L10.7567 14.2633L13.9067 11.1133L14.9367 12.1333L14.6267 12.4433Z"></path><path id="路径 2" fill-rule="evenodd" style="fill:#FFFFFF" opacity="1" d="M8.62666 7.51002L8.62666 1.16002C8.62666 0.710024 8.26666 0.400024 7.86666 0.400024C7.42666 0.400024 7.10666 0.760024 7.10666 1.16002L7.10666 7.51002L1.02666 7.51002C0.576663 7.51002 0.266663 7.87002 0.266663 8.27002C0.266663 8.67002 0.626663 9.02002 1.02666 9.02002L7.06666 9.02002L7.06666 15.11C7.06666 15.56 7.42666 15.87 7.82666 15.87C8.26666 15.87 8.57666 15.51 8.57666 15.11L8.57666 9.07002L14.9367 9.07002C15.3767 9.07002 15.6867 8.71002 15.6867 8.31002C15.6867 7.91002 15.4267 7.51002 14.9767 7.51002L8.62666 7.51002Z"></path></g></g><defs><rect id="path_0" x="0" y="0" width="16" height="16" /></defs></svg>