<svg xmlns="http://www.w3.org/2000/svg" xmlns:xlink="http://www.w3.org/1999/xlink" width="21" height="21" viewBox="0 0 21 21" fill="none"><g opacity="1"  transform="translate(0 0)  rotate(0)"><mask id="bg-mask-0" fill="white"><use transform="translate(0 0)  rotate(NaN)" xlink:href="#path_0"></use></mask><g mask="url(#bg-mask-0)" ><path id="路径 1" fill-rule="evenodd" style="fill:#000000" opacity="0.7" d="M14.22,20.4354h-10.22997c-1.74,0 -3.15,-1.41 -3.15,-3.15v-11.04c0,-1.74 1.41,-3.15 3.15,-3.15h10.22997c1.74,0 3.15,1.41 3.15,3.15v11.04c0,1.74 -1.41,3.15 -3.15,3.15zM2.10003,6.2454v11.04c0,1.04 0.85,1.89 1.89,1.89h10.22997c1.04,0 1.89,-0.85 1.89,-1.89v-11.04c0,-1.04 -0.85,-1.89 -1.89,-1.89h-10.22997c-1.04,0 -1.89,0.85 -1.89,1.89z"></path><path id="路径 2" fill-rule="evenodd" style="fill:#000000" opacity="0.7" d="M20.1602 5.0628C20.1602 2.5828 18.1402 0.562805 15.6602 0.562805L6.6402 0.562805L6.6402 1.82281L15.6602 1.82281C17.4502 1.82281 18.9002 3.2828 18.9002 5.0628L18.9002 14.2128L20.1602 14.2128L20.1602 5.0628Z"></path><path id="路径 3" fill-rule="evenodd" style="fill:#1F71FF" opacity="0.9" d="M13.3858 11.7642C13.3858 11.4142 13.1058 11.1342 12.7558 11.1342L5.45581 11.1342C5.10581 11.1342 4.82581 11.4142 4.82581 11.7642C4.82581 12.1142 5.10581 12.3942 5.45581 12.3942L12.7558 12.3942C13.1058 12.3942 13.3858 12.1142 13.3858 11.7642Z"></path><path id="路径 4" fill-rule="evenodd" style="fill:#1F71FF" opacity="0.9" d="M9.73559 15.3268L9.73559 8.20678C9.73559 7.85678 9.45559 7.57678 9.10559 7.57678C8.75559 7.57678 8.47559 7.85678 8.47559 8.20678L8.47559 15.3268C8.47559 15.6768 8.75559 15.9568 9.10559 15.9568C9.45559 15.9568 9.73559 15.6768 9.73559 15.3268Z"></path></g></g><defs><rect id="path_0" x="0" y="0" width="21" height="21" /></defs></svg>