<svg xmlns="http://www.w3.org/2000/svg" xmlns:xlink="http://www.w3.org/1999/xlink" width="28" height="28" viewBox="0 0 28 28" fill="none"><g opacity="1"  transform="translate(0 0)  rotate(0)"><mask id="bg-mask-0" fill="white"><use transform="translate(0 0)  rotate(NaN)" xlink:href="#path_0"></use></mask><g mask="url(#bg-mask-0)" ><path id="路径 1" fill-rule="evenodd" style="fill:#000000" opacity="0.7" d="M14.01,1.86667c5.39,0 9.79,4.15 9.79,9.32003c-0.02,1.93 -0.64,3.76 -1.75,5.27l-0.06,0.09c-0.06,0.09 -0.12,0.17 -0.2,0.26l0.05,-0.05l-6.38,8.09c-0.62,0.78 -1.73,0.94 -2.54,0.37l-0.09,-0.06c-0.11,-0.09 -0.22,-0.19 -0.31,-0.31l-6.38,-8.09v-0.01c-0.04,-0.04 -0.07,-0.09 -0.11,-0.13l-0.04,-0.07l-0.05,-0.08l-0.11,-0.15c-1.02,-1.46 -1.59,-3.15 -1.63,-4.93v-0.22c0.02,-5.16003 4.41,-9.30003 9.81,-9.30003zM6.07,11.1767c0,1.52 0.48,2.97 1.47,4.34l-0.01,-0.01h0.01l-0.06,-0.09l0.07,0.11l0.04,0.04l6.4,8.13l6.4,-8.13l0.07,-0.07c-0.01,0.01 -0.03,0.02 -0.04,0.04l0.1,-0.15c0.9,-1.22 1.4,-2.7 1.41,-4.21c0,-4.10003 -3.53,-7.44003 -7.92,-7.44003c-4.4,0 -7.92,3.33 -7.94,7.44003z"></path><path id="路径 2" fill-rule="evenodd" style="fill:#1F71FF" opacity="0.9" d="M14,7.13721c2.32,0 4.2,1.88 4.2,4.19999c0,2.32 -1.88,4.2 -4.2,4.2c-1.5,0 -2.89,-0.8 -3.64,-2.1c-0.75,-1.3 -0.75,-2.9 0,-4.19999c0.75,-1.3 2.14,-2.1 3.64,-2.1zM11.67,11.3372c0,1.29 1.04,2.33 2.33,2.33c0.83,0 1.6,-0.44 2.02,-1.16c0.42,-0.73 0.42,-1.61 0,-2.34c-0.42,-0.71999 -1.19,-1.15999 -2.02,-1.15999c-1.29,0 -2.33,1.03999 -2.33,2.32999z"></path></g></g><defs><rect id="path_0" x="0" y="0" width="28" height="28" /></defs></svg>