<svg xmlns="http://www.w3.org/2000/svg" xmlns:xlink="http://www.w3.org/1999/xlink" width="22" height="22" viewBox="0 0 22 22" fill="none"><g opacity="1"  transform="translate(0 0)  rotate(0)"><mask id="bg-mask-0" fill="white"><use transform="translate(0 0)  rotate(NaN)" xlink:href="#path_0"></use></mask><g mask="url(#bg-mask-0)" ><path id="路径 1" fill-rule="evenodd" style="fill:#000000" opacity="0.7" d="M19.4944 20.4162L19.4944 7.04624C19.4944 6.66624 19.1844 6.35624 18.8044 6.35624C18.4244 6.35624 18.1144 6.66624 18.1144 7.04624L18.1144 20.2462L3.09439 20.2462L3.09439 1.58624L12.2044 1.58624C12.5844 1.58624 12.8944 1.27624 12.8944 0.896238C12.8944 0.516238 12.5844 0.206238 12.2044 0.206238L2.64439 0.206238C2.09439 0.206238 1.68439 0.656238 1.68439 1.16624L1.68439 20.5262C1.68439 21.1362 2.20439 21.6262 2.78439 21.6262L18.2544 21.6262C18.9444 21.6262 19.4544 21.0762 19.4944 20.4162Z"></path><path id="路径 2" fill-rule="evenodd" style="fill:#000000" opacity="0.7" d="M18.5656 7.87624C18.9756 7.87624 19.2856 7.66624 19.4256 7.32624C19.5256 6.97624 19.4256 6.63624 19.1456 6.35624L12.8556 0.476238C12.5456 0.206238 12.2756 0.136238 11.9656 0.276238C11.5156 0.476238 11.5156 0.926238 11.5156 1.13624L11.5156 6.77624C11.5156 7.14624 11.6156 7.42624 11.8256 7.62624C11.9956 7.80624 12.2356 7.90624 12.5156 7.90624L18.5656 7.87624ZM12.8856 6.52624L17.2856 6.49624L12.8856 2.40624L12.8856 6.52624Z"></path><path id="路径 3" fill-rule="evenodd" style="fill:#1F71FF" opacity="1" d="M12.0669,12.8219h-6.53004c-0.38,0 -0.69,-0.31 -0.69,-0.69c0,-0.38 0.31,-0.69 0.69,-0.69h6.53004c0.38,0 0.69,0.31 0.69,0.69c0,0.38 -0.31,0.69 -0.69,0.69zM9.72686,8.6919h-4.19c-0.38,0 -0.69,-0.3 -0.69,-0.68c0,-0.38 0.31,-0.69 0.69,-0.69h4.16c0.38004,0 0.68004,0.31 0.68004,0.69c0,0.38 -0.27,0.68 -0.65004,0.68zM14.2969,16.9819h-8.76004c-0.38,0 -0.69,-0.31 -0.69,-0.69c0,-0.38 0.31,-0.69 0.69,-0.69h8.76004c0.38,0 0.69,0.31 0.69,0.69c0,0.38 -0.31,0.69 -0.69,0.69z"></path></g></g><defs><rect id="path_0" x="0" y="0" width="22" height="22" /></defs></svg>