<svg xmlns="http://www.w3.org/2000/svg" xmlns:xlink="http://www.w3.org/1999/xlink" width="16" height="16" viewBox="0 0 16 16" fill="none"><g opacity="1"  transform="translate(0 0)  rotate(0)"><mask id="bg-mask-0" fill="white"><use transform="translate(0 0)  rotate(NaN)" xlink:href="#path_0"></use></mask><g mask="url(#bg-mask-0)" ><path id="路径 1" fill-rule="evenodd" style="fill:#FFFFFF" opacity="1" d="M7.99735,1.28735c3.71005,0 6.71005,3.01 6.72005,6.71c0,3.71005 -3.01,6.72005 -6.72005,6.72005c-3.7,0 -6.71,-3.01 -6.71,-6.72005c0,-3.7 3.01,-6.71 6.71,-6.71zM11.3074,7.99735c0,-1.82 -1.48005,-3.31 -3.31005,-3.31c-1.82,0 -3.31,1.49 -3.31,3.31c0,1.83 1.49,3.31005 3.31,3.31005c1.83,0 3.31005,-1.48005 3.31005,-3.31005z"></path><path id="路径 2" fill-rule="evenodd" style="fill:#1F71FF" opacity="0.9" d="M8,0c4.42,0.01 7.99,3.58 8,8c0,4.42 -3.58,8 -8,8c-4.42,0 -8,-3.58 -8,-8c0,-4.42 3.58,-8 8,-8zM14.71,8c0,-3.7 -3.01,-6.71 -6.71,-6.71c-3.7,0 -6.71,3.01 -6.71,6.71c0,3.7 3.01,6.71 6.71,6.71c3.71,0 6.71,-3 6.71,-6.71z"></path><path id="路径 3" fill-rule="evenodd" style="fill:#1F71FF" opacity="0.9" d="M7.99964 11.3097C9.82964 11.3097 11.3096 9.8297 11.3096 7.9997C11.3096 6.1697 9.82964 4.6897 7.99964 4.6897C6.16964 4.6897 4.68964 6.1697 4.68964 7.9997C4.68964 9.8297 6.16964 11.3097 7.99964 11.3097Z"></path></g></g><defs><rect id="path_0" x="0" y="0" width="16" height="16" /></defs></svg>