<svg xmlns="http://www.w3.org/2000/svg" xmlns:xlink="http://www.w3.org/1999/xlink" width="19" height="19" viewBox="0 0 19 19" fill="none"><g opacity="1"  transform="translate(0 0)  rotate(0)"><mask id="bg-mask-0" fill="white"><use transform="translate(0 0)  rotate(NaN)" xlink:href="#path_0"></use></mask><g mask="url(#bg-mask-0)" ><path id="路径 1" fill-rule="evenodd" style="fill:#1F71FF" opacity="0.9" d="M2.57248,2.78745v13.23005c0,-0.17 -0.13,-0.3 -0.3,-0.3h14.44002c-0.17,0 -0.31,0.13 -0.31,0.3v-13.24005c0,0.17 0.14,0.3 0.31,0.3h-14.44002c0.18,0 0.3,-0.14 0.3,-0.29zM1.66248,15.7775v-12.77005c0,-0.48 0.39,-0.87 0.87,-0.87h13.92002c0.49,0 0.88,0.39 0.88,0.87v12.77005c0,0.49 -0.39,0.88 -0.88,0.88h-13.92002c-0.48,0 -0.87,-0.39 -0.87,-0.88zM6.70248,7.38745v0.72h-0.72v-2.12h7.03002v2.12h-0.71v-0.72h-2.1v4.92005h0.7v0.71h-2.81002v-0.71h0.7v-4.92005z"></path></g></g><defs><rect id="path_0" x="0" y="0" width="19" height="19" /></defs></svg>