<svg xmlns="http://www.w3.org/2000/svg" xmlns:xlink="http://www.w3.org/1999/xlink" width="20" height="20" viewBox="0 0 20 20" fill="none"><g opacity="1"  transform="translate(0 0)  rotate(0)"><mask id="bg-mask-0" fill="white"><use transform="translate(0 0)  rotate(NaN)" xlink:href="#path_0"></use></mask><g mask="url(#bg-mask-0)" ><path id="路径 1" fill-rule="evenodd" style="fill:#000000" opacity="0.7" d="M13.6245,18.4736h-7.25003c-0.82,0 -1.57,-0.43 -1.99,-1.14l-3.62,-6.27c-0.41,-0.71 -0.41,-1.57995 0,-2.28995l3.62,-6.27c0.42,-0.7 1.17,-1.14 1.99,-1.14h7.25003c0.82,0 1.58,0.44 1.99,1.14l3.63,6.28c0.4,0.71 0.4,1.57995 0,2.28995l-3.63,6.28c-0.42,0.7 -1.18,1.12 -1.99,1.12zM6.06447,3.46365l-3.63,6.27c-0.05,0.11 -0.05,0.24 0,0.34995l3.63,6.27c0.07,0.11 0.19,0.17 0.31,0.17h7.25003c0.13,0 0.24,-0.06 0.31,-0.17l3.63,-6.27c0.06,-0.10995 0.06,-0.23995 0,-0.34995l-3.63,-6.26c-0.07,-0.11 -0.19,-0.18 -0.31,-0.18h-7.25003c-0.12,0 -0.24,0.07 -0.31,0.17z"></path><path id="路径 2" fill-rule="evenodd" style="fill:#1F71FF" opacity="0.9" d="M10.0013,13.0568c-1.72996,-0.01 -3.12996,-1.41 -3.12996,-3.14c0,-1.73 1.4,-3.13 3.12996,-3.13c1.73,0 3.13,1.4 3.14,3.13c-0.01,1.73 -1.41,3.13 -3.14,3.14zM8.52134,9.9168c0,0.82 0.66,1.48 1.47996,1.49c0.82,-0.01 1.48,-0.67 1.49,-1.49c-0.01,-0.82 -0.67,-1.48 -1.49,-1.48c-0.81996,0 -1.47996,0.66 -1.47996,1.48z"></path></g></g><defs><rect id="path_0" x="0" y="0" width="20" height="20" /></defs></svg>