<svg xmlns="http://www.w3.org/2000/svg" xmlns:xlink="http://www.w3.org/1999/xlink" width="22" height="22" viewBox="0 0 22 22" fill="none"><g opacity="1"  transform="translate(0 0)  rotate(0)"><mask id="bg-mask-0" fill="white"><use transform="translate(0 0)  rotate(NaN)" xlink:href="#path_0"></use></mask><g mask="url(#bg-mask-0)" ><path id="路径 1" fill-rule="evenodd" style="fill:#000000" opacity="0.7" d="M4.47125,5.29145v0.24001c0.04,1.02999 0.41,2.00999 1.07,2.79c0.09,-0.79 0.42,-1.2 0.99,-1.2c0.57,0 0.9,0.39999 0.99,1.2c0.65,-0.78001 1.03,-1.76001 1.07,-2.79v-0.24001c0.01,-0.23 -0.09,-0.45 -0.25,-0.60999c-0.16,-0.16001 -0.38,-0.25 -0.61,-0.25c-0.17,-0.02 -0.33,0.02 -0.48,0.08999l-0.03,0.02001c-0.21,0.12999 -0.45,0.2 -0.69,0.20999c-0.23,-0.00999 -0.46,-0.08 -0.66,-0.19999h-0.03l-0.03,-0.02c-0.15,-0.08 -0.32,-0.12 -0.49,-0.1c-0.47,0.00999 -0.85,0.39 -0.85,0.85999zM5.32125,3.74146h0.03c0.28,-0.01 0.56,0.05 0.81,0.18l0.03,0.02c0.1,0.07 0.23,0.12 0.35,0.13c0.13,-0.01 0.24,-0.05001 0.35,-0.11l0.05,-0.04c0.25,-0.13 0.53,-0.19 0.81,-0.17c0.4,0 0.8,0.16 1.08,0.45c0.29,0.29 0.45,0.67999 0.45,1.08999v0.24001c-0.04,1.25 -0.51,2.43999 -1.33,3.38l-0.02,0.02999c-0.13,0.19 -0.35,0.32 -0.59,0.34c-0.13,0 -0.27,-0.05 -0.36,-0.14c-0.1,-0.1 -0.15,-0.22999 -0.14,-0.37c0,-0.26 0,-0.98 -0.33,-0.98c-0.32,0 -0.32,0.72 -0.32,0.98c-0.01,0.27 -0.22,0.49 -0.49,0.49c-0.24,-0.01999 -0.45,-0.15 -0.59,-0.34v-0.04c-0.82,-0.92 -1.29,-2.11 -1.33,-3.34999v-0.24001c0.01,-0.85 0.69,-1.53999 1.54,-1.54999z"></path><path id="路径 2" fill-rule="evenodd" style="fill:#000000" opacity="0.7" d="M7.05692,5.24173v-0.01c-0.04,0 -0.08,-0.02 -0.11,-0.05c-0.03,-0.03 -0.05,-0.07 -0.05,-0.12c0,-0.04 0.02,-0.08 0.05,-0.11c0.03,-0.04 0.07,-0.05 0.11,-0.05c0.62,0 1.12,0.5 1.13,1.12v0.17c0.01,0.06 -0.02,0.12 -0.08,0.16c-0.05,0.03 -0.12,0.03 -0.17,0c-0.06,-0.04 -0.09,-0.1 -0.08,-0.16v-0.16c0,-0.44 -0.36,-0.79 -0.8,-0.79zM4.29692,10.6517h10.30998c0.14,-0.02 0.29,0.03 0.39,0.13c0.1,0.11 0.15,0.25 0.13,0.39c0.02,0.14 -0.03,0.28 -0.13,0.39c-0.1,0.1 -0.25,0.15 -0.39,0.13h-10.30998c-0.14,0.02 -0.28,-0.03 -0.39,-0.13c-0.1,-0.11 -0.15,-0.25 -0.13,-0.39c-0.02,-0.14 0.03,-0.28 0.13,-0.39c0.11,-0.1 0.25,-0.15 0.39,-0.13zM11.1669,5.99173h3.79c0.14,-0.02 0.28,0.03 0.38,0.13c0.1,0.1 0.15,0.25 0.13,0.39c0.02,0.14 -0.03,0.28 -0.13,0.38c-0.1,0.11 -0.24,0.15 -0.38,0.13h-3.79c-0.14,0.02 -0.28,-0.02 -0.38,-0.13c-0.1,-0.1 -0.15,-0.24 -0.13,-0.38c-0.02,-0.14 0.03,-0.29 0.13,-0.39c0.1,-0.1 0.24,-0.15 0.38,-0.13zM4.29692,13.7517h4.81c0.29,0 0.52,0.23 0.52,0.51c0,0.29 -0.23,0.52 -0.52,0.52h-4.81c-0.28,0 -0.52,-0.23 -0.52,-0.52c0,-0.28 0.24,-0.51 0.52,-0.51zM4.29692,16.8417h4.81c0.29,0 0.52,0.23 0.52,0.52c0,0.28 -0.23,0.51 -0.52,0.51h-4.81c-0.28,0 -0.52,-0.23 -0.52,-0.51c0,-0.29 0.24,-0.52 0.52,-0.52z"></path><path id="路径 3" fill-rule="evenodd" style="fill:#1F71FF" opacity="0.9" d="M14.1995,13.659c0.09,0.49 0.02,0.99 -0.23,1.42c-0.24,0.41 -0.62,0.72 -1.08,0.88c-0.02,0.18 -0.04,0.37 -0.04,0.56c0,0.17 0.01,0.35 0.04,0.52c0.96,0.33 1.53,1.32 1.33,2.32c0.26,0.22 0.55,0.4 0.87,0.52c0.37,-0.34 0.85,-0.53 1.35,-0.53c0.48,0.01 0.95,0.2 1.3,0.53c0.31,-0.14 0.59,-0.31 0.85,-0.51c-0.21,-0.99 0.35,-1.98 1.3,-2.3c0.03,-0.17 0.05,-0.35 0.05,-0.53c-0.01,-0.19 -0.03,-0.38 -0.05,-0.57c-0.96,-0.33 -1.53,-1.32 -1.33,-2.32c-0.25,-0.21 -0.54,-0.38 -0.85,-0.51c-0.36,0.34 -0.84,0.53 -1.33,0.52c-0.49,-0.01 -0.95,-0.19 -1.3,-0.52c-0.32,0.14 -0.61,0.32 -0.88,0.52zM15.1595,12.409l-0.03,-0.01c0.11,0 0.21,0.05 0.28,0.13c0.25,0.27 0.59,0.43 0.95,0.44c0.37,0.02 0.72,-0.14 0.95,-0.42c0.08,-0.09 0.19,-0.14 0.31,-0.15c0.05,0 0.09,0.01 0.13,0.03c0.51,0.17 0.98,0.45 1.38,0.82c0.13,0.11 0.18,0.29 0.12,0.45c-0.11,0.35 -0.07,0.73 0.11,1.04c0.18,0.32 0.49,0.55 0.84,0.64h0.02c0.17,0.03 0.29,0.17 0.31,0.34c0.05,0.27 0.08,0.55 0.1,0.83c0,0.28 -0.03,0.55 -0.08,0.82v0.02c-0.05,0.13 -0.15,0.24 -0.27,0.31h-0.02c-0.34,0.08 -0.64,0.3 -0.82,0.6c-0.18,0.33 -0.23,0.71 -0.12,1.07c0.06,0.16 0,0.35 -0.15,0.44c-0.4,0.34 -0.85,0.61 -1.34,0.81c-0.05,0.02 -0.1,0.02 -0.14,0.02c-0.11,-0.01 -0.21,-0.06 -0.29,-0.14c-0.24,-0.27 -0.58,-0.43 -0.94,-0.44c-0.37,-0.01 -0.71,0.15 -0.95,0.42c-0.09,0.08 -0.2,0.13 -0.32,0.14h-0.06c-0.04,0 -0.06,-0.02 -0.08,-0.02c-0.52,-0.17 -0.99,-0.45 -1.38,-0.83c-0.13,-0.1 -0.18,-0.28 -0.12,-0.44c0.1,-0.34 0.06,-0.72 -0.12,-1.03c-0.18,-0.31 -0.48,-0.53 -0.83,-0.62h-0.02c-0.16,-0.04 -0.29,-0.18 -0.3,-0.34c-0.06,-0.27 -0.08,-0.54 -0.08,-0.81c0,-0.28 0.03,-0.55 0.08,-0.83v-0.02c0.05,-0.12 0.14,-0.23 0.26,-0.3c0.02,-0.02 0.02,-0.02 0.04,-0.02c0.34,-0.08 0.64,-0.3 0.83,-0.6c0.17,-0.33 0.21,-0.71 0.1,-1.07c-0.05,-0.16 0,-0.34 0.14,-0.44c0.41,-0.34 0.86,-0.61 1.35,-0.81c0.05,-0.02 0.11,-0.03 0.16,-0.03z"></path><path id="路径 4" fill-rule="evenodd" style="fill:#1F71FF" opacity="0.9" d="M16.3736,15.7772c-0.19,0 -0.38,0.07 -0.51,0.21c-0.14,0.13 -0.21,0.32 -0.21,0.51c0,0.4 0.32,0.72 0.72,0.72c0.4,0 0.72,-0.32 0.72,-0.72c0,-0.4 -0.32,-0.72 -0.72,-0.72zM16.3736,15.0872v0c0.38,0 0.74,0.15 1,0.41c0.47,0.47 0.55,1.21 0.18,1.76c-0.37,0.55 -1.08,0.77 -1.69,0.52c-0.62,-0.25 -0.97,-0.9 -0.84,-1.56c0.12,-0.65 0.69,-1.12 1.35,-1.13z"></path><path id="路径 5" fill-rule="evenodd" style="fill:#000000" opacity="0.7" d="M16.505 1.375L2.755 1.375C1.995 1.375 1.375 1.995 1.375 2.745L1.375 19.245C1.375 20.005 1.995 20.625 2.755 20.625L10.825 20.625C11.115 20.625 11.345 20.395 11.345 20.105C11.345 19.825 11.115 19.595 10.825 19.595L2.755 19.595C2.565 19.595 2.405 19.435 2.405 19.245L2.405 2.745C2.405 2.565 2.565 2.405 2.755 2.405L16.505 2.405C16.685 2.405 16.845 2.565 16.845 2.745L16.845 11.175C16.845 11.455 17.075 11.685 17.355 11.685C17.645 11.685 17.875 11.455 17.875 11.175L17.875 2.745C17.875 1.995 17.255 1.375 16.505 1.375Z"></path></g></g><defs><rect id="path_0" x="0" y="0" width="22" height="22" /></defs></svg>