<svg xmlns="http://www.w3.org/2000/svg" xmlns:xlink="http://www.w3.org/1999/xlink" width="28" height="28" viewBox="0 0 28 28" fill="none"><g opacity="1"  transform="translate(0 0)  rotate(0)"><mask id="bg-mask-0" fill="white"><use transform="translate(0 0)  rotate(NaN)" xlink:href="#path_0"></use></mask><g mask="url(#bg-mask-0)" ><path id="路径 1" fill-rule="evenodd" style="fill:#000000" opacity="0.7" d="M16.8,2.79999c2.32,0 4.2,1.88 4.2,4.2c0,2.32 -1.88,4.20001 -4.2,4.20001c-2.32,0 -4.2,-1.88001 -4.2,-4.20001c0,-2.32 1.88,-4.2 4.2,-4.2zM14.47,6.99999c0,1.29 1.04,2.33 2.33,2.33c1.29,0 2.33,-1.04 2.33,-2.33c0,-1.29 -1.04,-2.33 -2.33,-2.33c-1.29,0 -2.33,1.04 -2.33,2.33zM22.4,16.8c2.32,0 4.2,1.88 4.2,4.2c0,2.32 -1.88,4.2 -4.2,4.2c-1.5,0 -2.89,-0.8 -3.64,-2.1c-0.75,-1.3 -0.75,-2.9 0,-4.2c0.75,-1.3 2.14,-2.1 3.64,-2.1zM20.07,21c0,1.29 1.04,2.33 2.33,2.33c0.83,0 1.6,-0.44 2.02,-1.16c0.42,-0.73 0.42,-1.61 0,-2.34c-0.42,-0.72 -1.19,-1.16 -2.02,-1.16c-1.29,0 -2.33,1.04 -2.33,2.33z"></path><path id="路径 2" fill-rule="evenodd" style="fill:#000000" opacity="0.7" d="M13.8356,8.64862c0.36,-0.34 0.93,-0.33 1.29,0.02c0.36,0.35 0.37,0.92 0.03,1.29l-0.06,0.05998l-6.06002,5.6c-0.37,0.34 -0.94,0.33 -1.29,-0.02c-0.36,-0.35 -0.37,-0.92 -0.04,-1.29l0.06,-0.06zM8.89558,18.4386c0.12,-0.47 0.58,-0.77 1.06,-0.69l0.07002,0.01l9.33,2.34c0.49,0.12 0.8,0.6 0.7,1.09c-0.11,0.5 -0.58,0.82 -1.08,0.73l-0.07,-0.01l-9.33002,-2.34c-0.24,-0.06 -0.45,-0.21 -0.58,-0.42c-0.12,-0.21 -0.16,-0.47 -0.1,-0.71z"></path><path id="路径 3" fill-rule="evenodd" style="fill:#1F71FF" opacity="0.9" d="M6.53331,13.5333c2.32,0 4.19999,1.88 4.19999,4.2c0,2.32 -1.87999,4.2 -4.19999,4.2c-2.32,0 -4.2,-1.88 -4.2,-4.2c0,-2.32 1.88,-4.2 4.2,-4.2zM4.20331,17.7333c0,1.29 1.04,2.33 2.33,2.33c1.29,0 2.33,-1.04 2.33,-2.33c0,-1.29 -1.04,-2.33 -2.33,-2.33c-1.29,0 -2.33,1.04 -2.33,2.33z"></path></g></g><defs><rect id="path_0" x="0" y="0" width="28" height="28" /></defs></svg>