<svg xmlns="http://www.w3.org/2000/svg" xmlns:xlink="http://www.w3.org/1999/xlink" width="40" height="40" viewBox="0 0 40 40" fill="none"><g opacity="1"  transform="translate(0 0)  rotate(0)"><mask id="bg-mask-0" fill="white"><use transform="translate(0 0)  rotate(NaN)" xlink:href="#path_0"></use></mask><g mask="url(#bg-mask-0)" ><path id="路径 1" fill-rule="evenodd" style="fill:#000000" opacity="1" d="M37.1366 35.0634L37.1366 9.13337C37.1366 8.60337 36.6666 8.13337 36.1366 8.13337C35.5966 8.13337 35.1366 8.60337 35.1366 9.13337L35.1366 35.0034C35.1366 35.8634 34.3966 36.6034 33.5366 36.6034L6.39664 36.6034C5.53664 36.6034 4.79664 35.8634 4.79664 35.0034L4.79664 4.93337C4.79664 4.06337 5.53664 3.33337 6.46664 3.33337L28.8666 3.33337C29.3966 3.33337 29.8666 2.86337 29.8666 2.33337C29.8666 1.80337 29.3966 1.33337 28.8666 1.33337L6.46664 1.33337C4.46664 1.33337 2.86664 2.93337 2.86664 4.93337L2.86664 35.0634C2.86664 37.0634 4.46664 38.6634 6.46664 38.6634L33.5366 38.6634C35.5366 38.6634 37.1966 37.0634 37.1366 35.0634Z"></path><path id="路径 2" fill-rule="evenodd" style="fill:#000000" opacity="1" d="M28.8634 20C28.8634 19.47 28.4034 19 27.8634 19L12.1334 19C11.6034 19 11.1334 19.47 11.1334 20C11.1334 20.53 11.6034 21 12.1334 21L27.8634 21C28.4034 21 28.8634 20.53 28.8634 20Z"></path><path id="路径 3" fill-rule="evenodd" style="fill:#000000" opacity="1" d="M21 27.8633L21 12.1333C21 11.6033 20.53 11.1333 20 11.1333C19.47 11.1333 19 11.6033 19 12.1333L19 27.8633C19 28.4033 19.47 28.8633 20 28.8633C20.53 28.8633 21 28.4033 21 27.8633Z"></path><path id="路径 4" fill-rule="evenodd" style="fill:#000000" opacity="1" d="M36.1966,10.1334h-4.73c-2,0 -3.6,-1.60003 -3.6,-3.60003v-4.2c0,-0.4 0.27,-0.73 0.6,-0.93c0.33,-0.14 0.8,-0.07 1.07,0.2l7.33,6.8c0.33,0.26 0.4,0.73 0.27,1.06c-0.2,0.4 -0.54,0.67003 -0.94,0.67003zM29.8666,6.46337c0,0.87 0.73,1.6 1.6,1.6h2.13l-3.73,-3.46z"></path><path id="路径 5" fill-rule="evenodd" style="fill:#000000" opacity="0.3" d="M26.6033 35.3967L26.6033 15.5367C26.6033 14.0667 25.4033 12.8667 23.9333 12.8667L6.20333 12.8667C4.73333 12.8667 3.53333 14.0667 3.53333 15.5367L3.53333 35.3967C3.53333 36.8667 4.73333 38.0667 6.20333 38.0667L23.9333 38.0667C25.4033 38.0667 26.6033 36.8667 26.6033 35.3967Z"></path></g></g><defs><rect id="path_0" x="0" y="0" width="40" height="40" /></defs></svg>