<svg xmlns="http://www.w3.org/2000/svg" xmlns:xlink="http://www.w3.org/1999/xlink" width="16" height="16" viewBox="0 0 16 16" fill="none"><g opacity="1"  transform="translate(0 0)  rotate(0)"><mask id="bg-mask-0" fill="white"><use transform="translate(0 0)  rotate(NaN)" xlink:href="#path_0"></use></mask><g mask="url(#bg-mask-0)" ><path id="路径 1" fill-rule="evenodd" style="fill:#FA5151" opacity="1" d="M5.45146,3.93442v0h-1.49v0.07l-0.04,9.41998c0,0.03 0.01,0.06 0.03,0.09c0.03,0.02 0.06001,0.04 0.09,0.04l7.88004,0.03c0.07,0 0.12,-0.05 0.12,-0.12l0.05,-9.46998v-0.06h-1.55v0zM10.4115,1.53442c0.59,0 1.07,0.47 1.07,1.06v0.4h3.01c0.27,0 0.5,0.23 0.5,0.5c0,0.28 -0.23,0.5 -0.5,0.5h-1.46l-0.05,9.46998c0,0.59 -0.48,1.06 -1.06,1.06h-0.01l-7.87004,-0.04c-0.59,0 -1.06,-0.48 -1.06,-1.07l0.05,-9.40998h-1.53c-0.27,0 -0.5,-0.23 -0.5,-0.51c0,-0.27 0.23,-0.5 0.5,-0.5h3.01001v-0.4c0,-0.58 0.46999,-1.06 1.06,-1.06zM10.5415,2.99442v-0.48c0,-0.11 -0.08,-0.19 -0.19,-0.19h-4.73004c-0.1,0 -0.18,0.08 -0.18,0.19v0.48z"></path><path id="路径 2" fill-rule="evenodd" style="fill:#FFFFFF" opacity="1" d="M5.55283 11.5017L5.55283 6.55766C5.55283 6.54266 5.54083 6.52966 5.52483 6.52966C5.50983 6.52966 5.49683 6.54266 5.49683 6.55766L5.49683 11.4997C5.49683 11.5157 5.50983 11.5277 5.52483 11.5277C5.53883 11.5277 5.55183 11.5157 5.55283 11.5017Z"></path><path id="路径 3" fill-rule="evenodd" style="fill:#FA5151" opacity="1" d="M5.02808 6.55591L5.02808 11.4999C5.02808 11.7729 5.25008 11.9969 5.52508 11.9969C5.80008 11.9969 6.02208 11.7749 6.02208 11.4999L6.02208 6.55791C6.02008 6.28291 5.79808 6.06091 5.52508 6.06091C5.25108 6.06091 5.02808 6.28291 5.02808 6.55591Z"></path><path id="路径 4" fill-rule="evenodd" style="fill:#FFFFFF" opacity="1" d="M8.04819 11.4688L8.04819 6.52483C8.04819 6.50983 8.03619 6.49683 8.02019 6.49683C8.00519 6.49683 7.99219 6.50983 7.99219 6.52483L7.99219 11.4668C7.99219 11.4828 8.00519 11.4948 8.02019 11.4948C8.03619 11.4948 8.04819 11.4838 8.04819 11.4688Z"></path><path id="路径 5" fill-rule="evenodd" style="fill:#FA5151" opacity="1" d="M7.52344 6.52466L7.52344 11.4687C7.52344 11.7417 7.74544 11.9657 8.02044 11.9657C8.29344 11.9657 8.51744 11.7437 8.51744 11.4687L8.51744 6.52466C8.51744 6.25166 8.29344 6.02966 8.02044 6.02966C7.74644 6.02966 7.52344 6.25166 7.52344 6.52466Z"></path><path id="路径 6" fill-rule="evenodd" style="fill:#FFFFFF" opacity="1" d="M10.534 11.4408L10.534 6.49675C10.534 6.48175 10.522 6.46875 10.506 6.46875C10.49 6.46875 10.478 6.48175 10.478 6.49675L10.478 11.4387C10.478 11.4548 10.49 11.4668 10.506 11.4668C10.522 11.4668 10.534 11.4548 10.534 11.4408Z"></path><path id="路径 7" fill-rule="evenodd" style="fill:#FA5151" opacity="1" d="M10.0093 6.497L10.0093 11.441C10.0093 11.714 10.2313 11.936 10.5063 11.936C10.7813 11.936 11.0033 11.714 11.0033 11.441L11.0033 6.497C11.0033 6.223 10.7813 6 10.5063 6C10.2323 6 10.0093 6.222 10.0093 6.497Z"></path></g></g><defs><rect id="path_0" x="0" y="0" width="16" height="16" /></defs></svg>