<svg xmlns="http://www.w3.org/2000/svg" xmlns:xlink="http://www.w3.org/1999/xlink" width="20" height="20" viewBox="0 0 20 20" fill="none"><g opacity="1"  transform="translate(0 0)  rotate(0)"><mask id="bg-mask-0" fill="white"><use transform="translate(0 0)  rotate(NaN)" xlink:href="#path_0"></use></mask><g mask="url(#bg-mask-0)" ><path id="路径 1" fill-rule="evenodd" style="fill:#FFFFFF" opacity="1" d="M9.97391,1.18555c4.82999,0 8.72999,3.93 8.72999,8.72c0,4.82995 -3.91,8.72995 -8.72999,8.72995c-4.82,0 -8.72,-3.93 -8.72,-8.72995c0,-4.82 3.93,-8.72 8.72,-8.72zM12.7139,12.3955v-4.78995c0,-0.17 -0.14,-0.31 -0.32,-0.31h-4.78999c-0.17,0 -0.31,0.14 -0.31,0.31v4.78995c0,0.17 0.14,0.31 0.31,0.31h4.78999c0.17,0 0.32,-0.14 0.32,-0.31z"></path></g></g><defs><rect id="path_0" x="0" y="0" width="20" height="20" /></defs></svg>