<svg xmlns="http://www.w3.org/2000/svg" xmlns:xlink="http://www.w3.org/1999/xlink" width="18" height="18" viewBox="0 0 18 18" fill="none"><g opacity="1"  transform="translate(0 0)  rotate(0)"><mask id="bg-mask-0" fill="white"><use transform="translate(0 0)  rotate(NaN)" xlink:href="#path_0"></use></mask><g mask="url(#bg-mask-0)" ><path id="路径 1" fill-rule="evenodd" style="fill:#1F71FF" opacity="0.9" d="M15.75,1.5c0.41,0 0.75,0.34 0.75,0.75v13.5c0,0.41 -0.34,0.75 -0.75,0.75h-13.5c-0.41,0 -0.75,-0.34 -0.75,-0.75v-13.5c0,-0.41 0.34,-0.75 0.75,-0.75zM9.35,13.19c-0.21,0.17 -0.5,0.16 -0.71,0l-0.04,-0.04l-2.66,-2.67l-3.31,2.32v2.58h12.75v-6.88zM2.63,2.63v8.8l3.05,-2.14c0.2,-0.15 0.48,-0.13 0.68,0.03l0.04,0.03l2.65,2.65l6.33,-4.92v-4.45zM6,5.25c0.27,0 0.52,0.14 0.65,0.37c0.13,0.24 0.13,0.52 0,0.76c-0.13,0.23 -0.38,0.37 -0.65,0.37c-0.41,0 -0.75,-0.34 -0.75,-0.75c0,-0.41 0.34,-0.75 0.75,-0.75z"></path></g></g><defs><rect id="path_0" x="0" y="0" width="18" height="18" /></defs></svg>