<svg xmlns="http://www.w3.org/2000/svg" xmlns:xlink="http://www.w3.org/1999/xlink" width="21" height="21" viewBox="0 0 21 21" fill="none"><g opacity="1"  transform="translate(0 0)  rotate(0)"><mask id="bg-mask-0" fill="white"><use transform="translate(0 0)  rotate(NaN)" xlink:href="#path_0"></use></mask><g mask="url(#bg-mask-0)" ><path id="路径 1" fill-rule="evenodd" style="fill:#1F71FF" opacity="0.9" d="M3.81407,17.1852h9.55003c0.53,0 0.95,0.42 0.95,0.95v1.91c0,0.53 -0.42,0.95 -0.95,0.95h-9.55003c-0.52,0 -0.95,-0.42 -0.95,-0.95v-1.91c0,-0.53 0.43,-0.95 0.95,-0.95zM12.1941,18.0752l3.97,-3.98c0.18,-0.17 0.42,-0.27 0.66,-0.27c0.25,0 0.49,0.1 0.67,0.27l1.32,1.33c0.37,0.37 0.37,0.96 0,1.32l-3.97,3.98c-0.37,0.37 -0.96,0.37 -1.33,0l-1.32,-1.33c-0.18,-0.17 -0.28,-0.41 -0.28,-0.66c0,-0.25 0.1,-0.48 0.28,-0.66z"></path><path id="路径 2" fill-rule="evenodd" style="fill:#000000" opacity="0.7" d="M17.8596,15.27l-4.5,4.5c-0.11,0.15 -0.28,0.25 -0.47,0.27c-0.48,0.02 -10.02999,0 -10.02999,0c-0.52,0 -0.95,-0.42 -0.95,-0.95v-18.14c0,-0.52 0.43,-0.95 0.95,-0.95h14.31999c0.53,0 0.96,0.43 0.96,0.95c0,0 0.01,13.58 0,13.84c-0.03,0.19 -0.13,0.36 -0.28,0.48zM2.85961,0.95v18.14h9.81999l4.5,-4.5v-13.64zM5.24961,8.11c0,-0.26 0.21,-0.47 0.48,-0.47h8.58999c0.26,0 0.48,0.21 0.48,0.47c0,0.27 -0.22,0.48 -0.48,0.48h-8.58999c-0.27,0 -0.48,-0.21 -0.48,-0.48zM14.3196,4.77h-8.58999c-0.27,0 -0.48,-0.21 -0.48,-0.47c0,-0.27 0.21,-0.48 0.48,-0.48h8.58999c0.26,0 0.48,0.21 0.48,0.48c0,0.26 -0.22,0.47 -0.48,0.47zM5.72961,11.45h4.76999c0.26,0 0.48,0.22 0.48,0.48c0,0.26 -0.22,0.48 -0.48,0.48h-4.76999c-0.27,0 -0.48,-0.22 -0.48,-0.48c0,-0.26 0.21,-0.48 0.48,-0.48z"></path></g></g><defs><rect id="path_0" x="0" y="0" width="21" height="21" /></defs></svg>