<svg xmlns="http://www.w3.org/2000/svg" xmlns:xlink="http://www.w3.org/1999/xlink" width="16" height="16" viewBox="0 0 16 16" fill="none"><g opacity="1"  transform="translate(0 0)  rotate(0)"><mask id="bg-mask-0" fill="white"><use transform="translate(0 0)  rotate(NaN)" xlink:href="#path_0"></use></mask><g mask="url(#bg-mask-0)" ><path id="路径 1" fill-rule="evenodd" style="fill:#000000" opacity="1" d="M8.53249 7.52401L8.53249 2.54401C8.53249 2.26401 8.30249 2.04401 8.03249 2.04401C7.75249 2.04401 7.53249 2.26401 7.53249 2.54401L7.53249 7.52401L2.49249 7.51401C2.49249 7.51401 2.49249 7.51401 2.49249 7.51401C2.21249 7.51401 1.99249 7.73401 1.99249 8.01401C1.99249 8.29401 2.21249 8.51401 2.49249 8.51401L7.53249 8.52401L7.53249 13.504C7.53249 13.784 7.75249 14.004 8.03249 14.004C8.30249 14.004 8.53249 13.784 8.53249 13.504L8.53249 8.52401L13.4825 8.52401C13.4825 8.52401 13.4825 8.52401 13.4825 8.52401C13.7625 8.52401 13.9825 8.29401 13.9925 8.02401C13.9925 7.74401 13.7625 7.52401 13.4925 7.52401L8.53249 7.52401Z"></path></g></g><defs><rect id="path_0" x="0" y="0" width="16" height="16" /></defs></svg>