<svg xmlns="http://www.w3.org/2000/svg" xmlns:xlink="http://www.w3.org/1999/xlink" width="18.3299560546875" height="18.33001708984375" viewBox="0 0 18.3299560546875 18.33001708984375" fill="none"><path id="路径 1" fill-rule="evenodd" style="fill:#1E6FFF" opacity="1" d="M9.17,0c5.06,0 9.16,4.1 9.16,9.17c0,5.06 -4.1,9.16 -9.16,9.16c-5.07,0 -9.17,-4.1 -9.17,-9.16c0,-5.07 4.1,-9.17 9.17,-9.17zM13.01,9.78c0.2,-0.14 0.32,-0.37 0.32,-0.61c0,-0.25 -0.12,-0.48 -0.32,-0.61l-5.21,-3.44c-0.23,-0.15 -0.51,-0.16 -0.75,-0.03c-0.24,0.12 -0.38,0.37 -0.38,0.64v6.87c0,0.27 0.14,0.52 0.38,0.65c0.24,0.12 0.52,0.11 0.75,-0.04l5.21,-3.43z"></path></svg>