<svg xmlns="http://www.w3.org/2000/svg" xmlns:xlink="http://www.w3.org/1999/xlink" width="40" height="40" viewBox="0 0 40 40" fill="none"><g opacity="1"  transform="translate(0 0)  rotate(0)"><mask id="bg-mask-0" fill="white"><use transform="translate(0 0)  rotate(NaN)" xlink:href="#path_0"></use></mask><g mask="url(#bg-mask-0)" ><path id="路径 1" fill-rule="evenodd" style="fill:#000000" opacity="0.04000000000000001" d="M16.3153 11.7852C17.0553 11.0552 17.0553 9.99522 17.0553 9.99522L17.0553 2.10522L6.10526 12.7352L14.3153 12.7352C14.3153 12.7352 15.4753 12.7352 16.3153 11.7852Z"></path><path id="路径 2" fill-rule="evenodd" style="fill:#000000" opacity="0.1" d="M32.3184,1.36841c1.26,0 2.31,1.05 2.42,2.21v32.62999c0,1.27 -1.05,2.32 -2.32,2.32h-24.72998c-1.27,0 -2.32,-1.05 -2.32,-2.32v-23.79l0.21,-0.21l10.83998,-10.72999h0.11c0.1,0 0.1,-0.11 0.21,-0.11h0.31zM16.3184,9.99841v-6.21l-8.41998,8.20999h6.41998c1.16,0 2,-0.84 2,-1.99999zM33.1584,3.68841c0,-0.43 -0.42,-0.85 -0.84,-0.85h-14.53v7.16c0,1.89999 -1.58,3.47999 -3.47,3.47999h-7.47998v22.84c0,0.42 0.42,0.84 0.85,0.84h24.62998c0.42,0 0.84,-0.42 0.84,-0.84z"></path><path id="路径 3" fill-rule="evenodd" style="fill:#000000" opacity="0.1" d="M15.0521,19.052c2.95,-2.95 7.68,-2.95 10.74,0c2.94,2.95 2.94,7.79 0,10.74c-1.48,1.47 -3.48,2.21 -5.37,2.21c-2,0 -3.9,-0.74 -5.37,-2.21c-1.47,-1.48 -2.21,-3.37 -2.21,-5.37c0,-2 0.74,-3.9 2.21,-5.37zM24.1021,29.162l-8.52,-8.53c-0.85,1.16 -1.37,2.42 -1.37,3.79c0,1.58 0.63,3.16 1.79,4.31c2.21,2.22 5.68,2.43 8.1,0.43zM24.7321,20.102c-1.15,-1.15 -2.73,-1.79 -4.31,-1.79c-1.37,0 -2.74,0.53 -3.79,1.37l8.53,8.53c1.89,-2.42 1.68,-5.9 -0.43,-8.11z"></path></g></g><defs><rect id="path_0" x="0" y="0" width="40" height="40" /></defs></svg>