<svg xmlns="http://www.w3.org/2000/svg" xmlns:xlink="http://www.w3.org/1999/xlink" width="16" height="16" viewBox="0 0 16 16" fill="none"><g opacity="1"  transform="translate(0 0)  rotate(0)"><mask id="bg-mask-0" fill="white"><use transform="translate(0 0)  rotate(NaN)" xlink:href="#path_0"></use></mask><g mask="url(#bg-mask-0)" ><path id="路径 1" fill-rule="evenodd" style="fill:#1F71FF" opacity="0.9" d="M7.99962 11.3009C8.38962 11.3009 8.69962 10.9909 8.69962 10.6009C8.69962 10.3509 8.56962 10.1209 8.34962 9.99088C8.12962 9.87088 7.86962 9.87088 7.64962 9.99088C7.42962 10.1209 7.29962 10.3509 7.29962 10.6009C7.29962 10.9909 7.60962 11.3009 7.99962 11.3009Z"></path><path id="路径 2" fill-rule="evenodd" style="fill:#1F71FF" opacity="0.9" d="M7.24799 5.0983L7.41799 9.0983C7.41799 9.3183 7.59799 9.4983 7.81799 9.4983L8.21799 9.4983C8.43799 9.4983 8.61799 9.3183 8.61799 9.0983L8.74799 5.0983C8.74799 4.8783 8.57799 4.6983 8.34799 4.6983L7.64799 4.6983C7.42799 4.6983 7.24799 4.8783 7.24799 5.0983Z"></path><path id="路径 3" fill-rule="evenodd" style="fill:#000000" opacity="0.7" d="M12.5712 12.9523C12.7112 12.8123 12.7212 12.5823 12.5812 12.4323C12.4412 12.2923 12.2212 12.2723 12.0612 12.4023C9.83118 14.4723 6.41118 14.5323 4.10118 12.5523C1.79118 10.5723 1.32118 7.18228 3.01118 4.66228C4.70118 2.13228 8.01118 1.26228 10.7212 2.65228C13.4312 4.03228 14.6812 7.21228 13.6312 10.0723C13.5812 10.1923 13.6112 10.3323 13.6912 10.4323C13.7812 10.5423 13.9112 10.5923 14.0412 10.5623C14.1712 10.5423 14.2812 10.4523 14.3312 10.3323C15.3412 7.57228 14.4412 4.47228 12.1212 2.67228C9.79118 0.882278 6.56118 0.802278 4.15118 2.48228C1.74118 4.16228 0.701179 7.21228 1.58118 10.0223C2.46118 12.8323 5.06118 14.7423 8.00118 14.7423C9.69118 14.7423 11.3212 14.1023 12.5712 12.9523Z"></path><path id="路径 4" fill-rule="evenodd" style="fill:#000000" opacity="0.7" d="M8.00459,14.8653c-3,0 -5.65,-1.95 -6.54,-4.81c-0.9,-2.85004 0.16,-5.96004 2.62,-7.68004c2.45,-1.71 5.74,-1.63 8.11001,0.2c2.37,1.83 3.28,4.98 2.25,7.80004c-0.06,0.17 -0.21,0.29 -0.38,0.32c-0.18,0.03 -0.36,-0.03 -0.47,-0.17c-0.12,-0.14 -0.15,-0.33 -0.08,-0.5c1.03,-2.79004 -0.19,-5.91004 -2.85,-7.27004c-2.65001,-1.35 -5.89001,-0.5 -7.55001,1.97c-1.66,2.48 -1.2,5.80004 1.06,7.74004c2.26,1.93 5.62,1.87 7.81001,-0.15c0.09,-0.09 0.22,-0.13 0.35,-0.13c0.2,0.01 0.38,0.14 0.45,0.33c0.07,0.18 0.02,0.39 -0.13,0.53c-1.27,1.17 -2.93001,1.82 -4.65001,1.82zM1.63459,6.20526c-0.8,2.85 0.38,5.88004 2.91,7.43004c2.52,1.55 5.76001,1.24 7.94001,-0.77c0.05,-0.04 0.08,-0.11 0.08,-0.17c0,-0.07 -0.02,-0.13 -0.06,-0.18c-0.05,-0.05 -0.11,-0.08 -0.18,-0.08c-0.06,0 -0.13,0.02 -0.17,0.07c-2.28001,2.09 -5.76001,2.15 -8.11001,0.14c-2.35,-2.01 -2.83,-5.46004 -1.11,-8.03004c1.72,-2.57 5.09,-3.45 7.85001,-2.05c2.76,1.41 4.03,4.65 2.96,7.55004c-0.04,0.09 -0.02,0.18 0.04,0.25c0.05,0.08 0.14,0.11 0.23,0.09c0.09,-0.01 0.17,-0.08 0.19,-0.17c0.75,-2.03004 0.46,-4.29004 -0.78,-6.07004c-1.24,-1.77 -3.26,-2.83 -5.42001,-2.83c-2.97,0 -5.57,1.97 -6.37,4.82z"></path></g></g><defs><rect id="path_0" x="0" y="0" width="16" height="16" /></defs></svg>