<svg xmlns="http://www.w3.org/2000/svg" xmlns:xlink="http://www.w3.org/1999/xlink" width="8" height="8" viewBox="0 0 8 8" fill="none"><path id="路径 1" fill-rule="evenodd" style="fill:#1F71FF" opacity="0.9" d="M4,8c-2.21,0 -4,-1.79 -4,-4c0,-2.21 1.79,-4 4,-4c2.21,0 4,1.79 4,4c0,2.21 -1.79,4 -4,4zM3.4,5.69c0.11,0 0.22,-0.04 0.3,-0.12l2.52,-2.53c0.11,-0.1 0.15,-0.25 0.11,-0.4c-0.04,-0.14 -0.15,-0.25 -0.29,-0.29c-0.15,-0.04 -0.3,0 -0.41,0.11l-2.25,2.21l-1,-1.01c-0.16,-0.16 -0.43,-0.16 -0.59,0c-0.16,0.16 -0.16,0.43 0,0.59l1.32,1.32c0.08,0.08 0.18,0.12 0.29,0.12z"></path></svg>