<svg xmlns="http://www.w3.org/2000/svg" xmlns:xlink="http://www.w3.org/1999/xlink" width="24" height="24" viewBox="0 0 24 24" fill="none"><g opacity="1"  transform="translate(0 0)  rotate(0)"><path id="矩形 5" fill-rule="evenodd" style="fill:#FA5151" opacity="0.2" d="M12 24L12 24C18.63 24 24 18.63 24 12L24 12C24 5.37 18.63 0 12 0L12 0C5.37 0 0 5.37 0 12L0 12C0 18.63 5.37 24 12 24Z"></path><path  id="矩形 5" style="fill:#FA5151; opacity:1;" d="M12,23c6.0751,0 11,-4.9249 11,-11c0,-6.07513 -4.9249,-11 -11,-11c-6.07513,0 -11,4.92487 -11,11c0,6.0751 4.92487,11 11,11zM12,25c-7.1797,0 -13,-5.8203 -13,-13c0,-7.1797 5.8203,-13 13,-13c7.1797,0 13,5.8203 13,13c0,7.1797 -5.8203,13 -13,13z"></path><g opacity="1"  transform="translate(4 4)  rotate(0)"><mask id="bg-mask-0" fill="white"><use transform="translate(0 0)  rotate(0)" xlink:href="#path_0"></use></mask><g mask="url(#bg-mask-0)" ><path id="路径 1" fill-rule="evenodd" style="fill:#FA5151" opacity="0.01" d="M0 16L16 16L16 0L0 0L0 16Z"></path><path id="路径 2" fill-rule="evenodd" style="fill:#FA5151" opacity="1" d="M2.66336 8.53667L13.3334 8.53667C13.5234 8.53667 13.7034 8.43668 13.7934 8.26667C13.8934 8.09667 13.8934 7.89667 13.7934 7.73667C13.7034 7.56667 13.5234 7.46667 13.3334 7.46667L2.66336 7.46667C2.37336 7.46667 2.13336 7.70667 2.13336 7.99667C2.13336 8.29667 2.37336 8.53667 2.66336 8.53667Z"></path></g></g></g><defs><rect id="path_0" x="0" y="0" width="16" height="16" /></defs></svg>