<svg xmlns="http://www.w3.org/2000/svg" xmlns:xlink="http://www.w3.org/1999/xlink" width="32" height="32" viewBox="0 0 32 32" fill="none"><g opacity="1"  transform="translate(0 0)  rotate(0)"><mask id="bg-mask-0" fill="white"><use transform="translate(0 0)  rotate(NaN)" xlink:href="#path_0"></use></mask><g mask="url(#bg-mask-0)" ><path id="路径 1" fill-rule="evenodd" style="fill:#1F71FF" opacity="0.9" d="M9.92188,14.3469c0,-0.74 0.61002,-1.35 1.35002,-1.35c0.77,0 1.38,0.64 1.36,1.41c-0.03,0.7 -0.6,1.27 -1.3,1.3c-0.78,0.02 -1.41002,-0.59 -1.41002,-1.36zM19.4319,14.3469c0,-0.74 0.6,-1.35 1.35,-1.35c0.75,0 1.35,0.61 1.35,1.35c0,0.75 -0.6,1.36 -1.35,1.36c-0.75,0 -1.35,-0.61 -1.35,-1.36z"></path><path id="路径 2" fill-rule="evenodd" style="fill:#000000" opacity="0.7" d="M25.4244,7.86561c2.4,2.05 3.73,4.74999 3.73,7.60999c0,6.01 -5.89,10.9 -13.13,10.9c-1.25,0 -2.5,-0.15 -3.72,-0.45l-3.51,2.04c-0.27,0.14 -0.54,0.21 -0.81,0.21c-0.41,0 -0.81,-0.15 -1.12,-0.43c-0.5,-0.45 -0.69,-1.14 -0.49,-1.77l0.62,-2.59c-0.55,-0.43 -1.05,-0.9 -1.5,-1.41l-0.03,-0.02c-0.01,-0.01 -0.01,-0.02 -0.02,-0.03l-0.03,-0.04c-1.66,-1.88 -2.53,-4.1 -2.53,-6.42c0,-6.00999 5.9,-10.89999 13.15,-10.89999c0.12,0 0.26,0 0.39,0.01l0.86,0.02l-0.07,0.02c3.11,0.23 6,1.37 8.21,3.25zM7.6544,26.8556c0.09,0.09 0.21,0.13 0.34,0.13c0.08,0 0.15,-0.01 0.22,-0.05l3.93,-2.28l0.06,0.02c1.25,0.34 2.53,0.52 3.83,0.52c6.58,0 11.95,-4.36 11.95,-9.72c0,-5.36 -5.36,-9.72999 -11.95,-9.72999c-6.59,0 -11.96,4.35999 -11.96,9.72999c0,3.88 2.61,6.28 4.16,7.36l0.09,0.06l-0.82,3.41c-0.07,0.2 -0.02,0.42 0.15,0.55z"></path><path id="路径 3" fill-rule="evenodd" style="fill:#000000" opacity="0.7" d="M7.98564,28.3469c-0.46,0 -0.9,-0.17 -1.24,-0.4801c-0.55,-0.4799 -0.76,-1.25 -0.54,-1.9399l0.6,-2.47c-0.52,-0.4201 -1.01,-0.88 -1.44,-1.37l-0.02,-0.02c-0.01,-0.01 -0.02,-0.02 -0.03,-0.0301l-0.03,-0.0399c-1.68,-1.9 -2.57,-4.1601 -2.57,-6.53c0,-6.10005 5.97,-11.07005 13.31996,-11.07005c0.13,0 0.26,0 0.4,0.01l1.8,0.04l-0.23,0.08c1.29,0.16 2.54,0.48 3.72,0.94c1.41,0.56 2.7,1.33 3.81,2.27c2.45,2.08 3.8,4.83005 3.8,7.74005c0,6.11 -5.97,11.07 -13.3,11.07c-1.25,0 -2.49,-0.14 -3.7,-0.4401l-3.44996,2.01h-0.01c-0.3,0.1501 -0.59,0.2301 -0.89,0.2301zM3.05564,15.4669c0,2.28 0.86,4.4599 2.49,6.3099l0.03,0.0401c0.01,0 0.02,0.01 0.02,0.02l0.03,0.0299c0.44,0.5 0.94,0.9601 1.47,1.3901l0.09,0.06l-0.65,2.7099c-0.18,0.5701 0,1.1901 0.44,1.59c0.28,0.25 0.64,0.3801 1.01,0.3801c0.25,0 0.49,-0.06 0.73,-0.18l3.56996,-2.08l0.06,0.02c1.21,0.3 2.44,0.45 3.68,0.45c7.15,0 12.96,-4.82 12.96,-10.73c0,-2.81 -1.31,-5.46 -3.68,-7.48005c-2.16,-1.84 -5.04,-2.98 -8.11,-3.21l-0.53,-0.04h-0.24c-0.14,-0.01 -0.27,-0.01 -0.39,-0.01c-7.14996,0 -12.97996,4.82 -12.97996,10.73005zM7.98564,27.1669c-0.17,0 -0.33,-0.0601 -0.45,-0.17c-0.21,-0.19 -0.29,-0.48 -0.2,-0.74l0.79,-3.28c-1.58,-1.1101 -4.23,-3.5501 -4.23,-7.5c0,-5.46 5.44,-9.89005 12.12996,-9.89005c6.68,0 12.12,4.43005 12.12,9.89005c0,5.46 -5.44,9.8899 -12.12,9.8899c-1.31,0 -2.61,-0.17 -3.87,-0.5199l-3.85996,2.25h-0.01c-0.09,0.05 -0.19,0.07 -0.3,0.07zM4.24564,15.4769c0,3.8 2.56,6.16 4.09,7.2199l0.18,0.1301l-0.85,3.5399c-0.04,0.1301 -0.01,0.2801 0.1,0.3701c0.06,0.06 0.14,0.09 0.22,0.09c0.05,0 0.1,-0.01 0.15,-0.03l3.97996,-2.32l0.13,0.04c1.24,0.3399 2.51,0.5099 3.79,0.5099c6.49,0 11.77,-4.2799 11.77,-9.5499c0,-5.27 -5.28,-9.55005 -11.78,-9.55005c-6.48996,0 -11.77996,4.28005 -11.77996,9.55005z"></path></g></g><defs><rect id="path_0" x="0" y="0" width="32" height="32" /></defs></svg>