<svg xmlns="http://www.w3.org/2000/svg" xmlns:xlink="http://www.w3.org/1999/xlink" width="23" height="20" viewBox="0 0 23 20" fill="none"><g opacity="1"  transform="translate(0 0)  rotate(0)"><mask id="bg-mask-0" fill="white"><use transform="translate(0 0)  rotate(NaN)" xlink:href="#path_0"></use></mask><g mask="url(#bg-mask-0)" ><path id="路径 1" fill-rule="evenodd" style="fill:#000000" opacity="0.7" d="M20.2211,3.38c0.75,0.01 1.45,0.33 1.97,0.88c0.52,0.55 0.8,1.29 0.78,2.06v10.74c0.02,0.76 -0.26,1.5 -0.78,2.05c-0.52,0.56 -1.22,0.87 -1.97,0.89h-17.42996c-0.74,-0.02 -1.45,-0.33 -1.97,-0.89c-0.51,-0.55 -0.79,-1.29 -0.78,-2.05v-14.12c0,-1.62 1.28,-2.94 2.87,-2.94h4.58c0.16,0 0.3,0.06 0.41,0.17l3.11996,3.21zM21.8311,6.32c0.02,-0.94 -0.69,-1.73 -1.61,-1.77h-9.67l-1.14996,-1.17l-1.98,-2.03c-0.1,-0.11 -0.25,-0.17 -0.4,-0.17h-4.11c-0.95,0 -1.72,0.79 -1.72,1.76v14.12c-0.03,0.94 0.69,1.73 1.6,1.76h17.42996c0.92,-0.03 1.63,-0.82 1.61,-1.76z"></path><path id="路径 2" fill-rule="evenodd" style="fill:#1F71FF" opacity="0.9" d="M13.0578 7.53127C12.8978 7.37127 12.6478 7.31127 12.4378 7.40127C12.2178 7.49127 12.0778 7.71127 12.0778 7.95127C12.0778 8.10127 12.1378 8.25127 12.2478 8.36127L14.9978 11.1913L14.9478 11.1813L6.91778 11.1813C6.60778 11.1813 6.34778 11.4413 6.34778 11.7613C6.34778 12.0913 6.60778 12.3513 6.91778 12.3513L14.9978 12.3513L12.2478 15.1813C12.1378 15.2913 12.0778 15.4413 12.0778 15.5913C12.0778 15.8313 12.2178 16.0413 12.4378 16.1313C12.6478 16.2213 12.8978 16.1713 13.0578 16.0013L16.7778 12.1913C16.8878 12.0813 16.9478 11.9313 16.9478 11.7713C16.9478 11.6113 16.8878 11.4613 16.7778 11.3513L13.0578 7.53127Z"></path></g></g><defs><rect id="path_0" x="0" y="0" width="23" height="20" /></defs></svg>