<svg xmlns="http://www.w3.org/2000/svg" xmlns:xlink="http://www.w3.org/1999/xlink" width="18" height="18" viewBox="0 0 18 18" fill="none"><g opacity="1"  transform="translate(0 0)  rotate(0)"><mask id="bg-mask-0" fill="white"><use transform="translate(0 0)  rotate(NaN)" xlink:href="#path_0"></use></mask><g mask="url(#bg-mask-0)" ><path id="路径 1" fill-rule="evenodd" style="fill:#1F71FF" opacity="0.9" d="M7.5925,9.0025c0,-0.78 0.63,-1.41 1.41,-1.41c0.77,0 1.4,0.63 1.4,1.41c0,0.77 -0.63,1.4 -1.4,1.4c-0.78,0 -1.41,-0.63 -1.41,-1.4zM16.8725,8.4425c0.31,0 0.57,0.25 0.57,0.56c0,0.31 -0.26,0.56 -0.57,0.56h-0.59c-0.27,3.58 -3.14,6.45 -6.72,6.72v0.59c0,0.31 -0.25,0.57 -0.56,0.57c-0.31,0 -0.56,-0.26 -0.56,-0.57v-0.59c-3.59,-0.27 -6.45,-3.14 -6.73,-6.72h-0.59c-0.31,0 -0.56,-0.25 -0.56,-0.56c0,-0.31 0.25,-0.56 0.56,-0.56h0.59c0.28,-3.59 3.14,-6.45 6.73,-6.73v-0.59c0,-0.31 0.25,-0.56 0.56,-0.56c0.31,0 0.56,0.25 0.56,0.56v0.59c3.58,0.28 6.45,3.14 6.72,6.73zM15.1625,9.5625h-1.1c-0.31,0 -0.56,-0.25 -0.56,-0.56c0,-0.31 0.25,-0.56 0.56,-0.56h1.1c-0.27,-2.97 -2.64,-5.33 -5.6,-5.6v1.1c0,0.31 -0.25,0.56 -0.56,0.56c-0.31,0 -0.56,-0.25 -0.56,-0.56v-1.1c-2.97,0.27 -5.33,2.63 -5.6,5.6h1.1c0.31,0 0.56,0.25 0.56,0.56c0,0.31 -0.25,0.56 -0.56,0.56h-1.1c0.27,2.96 2.63,5.33 5.6,5.6v-1.1c0,-0.31 0.25,-0.56 0.56,-0.56c0.31,0 0.56,0.25 0.56,0.56v1.1c2.96,-0.27 5.33,-2.64 5.6,-5.6z"></path></g></g><defs><rect id="path_0" x="0" y="0" width="18" height="18" /></defs></svg>