<svg xmlns="http://www.w3.org/2000/svg" xmlns:xlink="http://www.w3.org/1999/xlink" width="16" height="14.1593017578125" viewBox="0 0 16 14.1593017578125" fill="none"><g opacity="1"  transform="translate(0 0)  rotate(0)"><mask id="bg-mask-0" fill="white"><use transform="translate(0 0)  rotate(NaN)" xlink:href="#path_0"></use></mask><g mask="url(#bg-mask-0)" ><path id="路径 1" fill-rule="evenodd" style="fill:#1F71FF" opacity="0.9" d="M0.557954 11.5044L0.527954 11.5044C0.237954 11.5244 0.0179541 11.7644 0.0279541 12.0544C0.0379541 12.3344 0.267954 12.5644 0.557954 12.5644L12.238 12.5644L12.268 12.5644C12.558 12.5444 12.778 12.3044 12.768 12.0244C12.768 11.7344 12.528 11.5044 12.238 11.5044L0.557954 11.5044Z"></path><path id="路径 2" fill-rule="evenodd" style="fill:#000000" opacity="0.7" d="M8.78112,0.32774c0.13,-0.14 0.31,-0.21 0.5,-0.21c0.19,0 0.37,0.07 0.5,0.21l1.74998,1.75c0.13,0.13 0.21,0.31 0.21,0.5c0,0.19 -0.08,0.37 -0.21,0.5l-1.19,1.19c-0.05,0.09 -0.12,0.16 -0.21,0.21l-4.36998,4.37c-0.11,0.11 -0.24,0.2 -0.39,0.27l-3.31,1.41996c-0.21,0.09 -0.46,0.05 -0.62,-0.12c-0.17,-0.16 -0.22,-0.41 -0.12,-0.61996l1.42,-3.31c0.06,-0.15 0.15,-0.28 0.26,-0.39zM3.75112,6.84774c-0.01,0.01 -0.01,0.02 -0.02,0.04l-0.01,0.02l-0.94,2.16l2.17,-0.93c0.01,-0.01 0.03,-0.01 0.04,-0.02l0.02,-0.02l4.1,-4.1l-1.25,-1.25v0zM8.61112,1.99774l1.25,1.25l0.66998,-0.67l-1.24998,-1.25v0z"></path></g></g><defs><rect id="path_0" x="0" y="0" width="16" height="14.15929203539823" /></defs></svg>