<svg xmlns="http://www.w3.org/2000/svg" xmlns:xlink="http://www.w3.org/1999/xlink" width="14.001953125" height="12" viewBox="0 0 14.001953125 12" fill="none"><path id="路径 1" fill-rule="evenodd" style="fill:#000000" opacity="0.5" d="M13.9327,5.54l-1.64,1.75c-0.14,0.14 -0.36,0.14 -0.49,0l-1.64,-1.75c-0.19001,-0.24 -0.06,-0.32 0.08,-0.46h1.49c-0.41,-2.37 -2.37001,-4.16 -4.73001,-4.16c-1.83,0 -3.41,1.07 -4.23,2.65l-0.81,-0.34c0.95,-1.92 2.85,-3.23 5.04,-3.23c2.84,0 5.19001,2.2 5.61001,5.08h1.25c0.13,0.14 0.2,0.32 0.07,0.46zM2.22269,5.17l1.64,1.75c0.14,0.14 0.07,0.33 -0.07,0.47h-1.42c0.57,2.12 2.43,3.69 4.63,3.69c1.68,0 3.15001,-0.91 4.01001,-2.28l0.83,0.35c-1.01,1.71 -2.80001,2.85 -4.84001,2.85c-2.69,0 -4.93,-1.97 -5.53,-4.61h-1.3c-0.14,-0.14 -0.27,-0.23 -0.07,-0.47l1.63,-1.75c0.13,-0.14 0.35,-0.14 0.49,0z"></path></svg>