<svg xmlns="http://www.w3.org/2000/svg" xmlns:xlink="http://www.w3.org/1999/xlink" width="28" height="28" viewBox="0 0 28 28" fill="none"><g opacity="1"  transform="translate(0 0)  rotate(0)"><mask id="bg-mask-0" fill="white"><use transform="translate(0 0)  rotate(NaN)" xlink:href="#path_0"></use></mask><g mask="url(#bg-mask-0)" ><path id="路径 1" fill-rule="evenodd" style="fill:#000000" opacity="0.7" d="M17.7114,2.86142c0.46,-0.45 1.2,-0.45 1.65,0l5.78,5.78c0.45,0.45 0.45,1.19 0,1.64998l-4.95,4.95l-1.65,-1.65l4.12,-4.12998l-4.12,-4.12l-4.13,4.12l-1.65,-1.65zM10.2914,25.1414c-0.45998,0.45 -1.19998,0.45 -1.64998,0l-5.78,-5.78c-0.45,-0.45 -0.45,-1.19 0,-1.65l4.95,-4.95l1.65,1.65l-4.12,4.13l4.12,4.12l4.12998,-4.12l1.65,1.65z"></path><path id="路径 2" fill-rule="evenodd" style="fill:#0078FF" opacity="1" d="M15.6501 10.7001L10.7001 15.6501L12.3501 17.3001L17.3001 12.3501L15.6501 10.7001Z"></path></g></g><defs><rect id="path_0" x="0" y="0" width="28" height="28" /></defs></svg>