<svg xmlns="http://www.w3.org/2000/svg" xmlns:xlink="http://www.w3.org/1999/xlink" width="21" height="21" viewBox="0 0 21 21" fill="none"><g opacity="1"  transform="translate(0 0)  rotate(0)"><mask id="bg-mask-0" fill="white"><use transform="translate(0 0)  rotate(NaN)" xlink:href="#path_0"></use></mask><g mask="url(#bg-mask-0)" ><path id="路径 1" fill-rule="evenodd" style="fill:#1E6FFF" opacity="1" d="M18.7374 7.41474L18.7374 3.98474L17.1474 2.85474L5.55737 2.85474L5.55737 7.41474L18.7374 7.41474Z"></path><path id="路径 2" fill-rule="evenodd" style="fill:#000000" opacity="0.7" d="M16.5984,20.0839h-12.63002c-1.42,0 -2.57,-1.15 -2.57,-2.56v-12.63005c0,-1.42 1.15,-2.57 2.57,-2.57h12.63002c1.41,0 2.56,1.15 2.56,2.57v12.63005c0,1.41 -1.15,2.56 -2.56,2.56zM2.25838,4.89385v12.63005c0,0.94 0.77,1.71 1.71,1.71h12.63002c0.94,0 1.71,-0.77 1.71,-1.71v-12.63005c0,-0.95 -0.77,-1.71 -1.71,-1.71h-12.63002c-0.95,0 -1.71,0.77 -1.71,1.71z"></path><path id="路径 3" fill-rule="evenodd" style="fill:#FFFFFF" opacity="1" d="M7.85583 3.60276L7.85583 2.05276C7.85583 1.52276 7.42583 1.08276 6.88583 1.08276L6.56583 1.08276C6.03583 1.08276 5.59583 1.51276 5.59583 2.05276L5.59583 3.60276C5.59583 4.13276 6.02583 4.56276 6.56583 4.56276L6.88583 4.56276C7.42583 4.56276 7.85583 4.13276 7.85583 3.60276Z"></path><path id="路径 4" fill-rule="evenodd" style="fill:#000000" opacity="0.7" d="M6.72748,4.99625c-0.86,0 -1.56,-0.7 -1.56,-1.56v-1.22c0,-0.86 0.7,-1.56 1.56,-1.56c0.86,0 1.56,0.7 1.56,1.56v1.22c0,0.86 -0.7,1.56 -1.56,1.56zM6.01748,2.21625v1.22c0,0.39 0.32,0.7 0.71,0.7c0.39,0 0.7,-0.31 0.7,-0.7v-1.22c0,-0.39 -0.31,-0.71 -0.7,-0.71c-0.39,0 -0.71,0.32 -0.71,0.71z"></path><path id="路径 5" fill-rule="evenodd" style="fill:#FFFFFF" opacity="1" d="M14.067 4.56276C14.607 4.56276 15.037 4.13276 15.037 3.60276L15.037 2.05276C15.037 1.51276 14.607 1.08276 14.067 1.08276L13.747 1.08276C13.207 1.08276 12.777 1.52276 12.777 2.05276L12.777 3.60276C12.777 4.13276 13.207 4.56276 13.747 4.56276L14.067 4.56276Z"></path><path id="路径 6" fill-rule="evenodd" style="fill:#000000" opacity="0.7" d="M13.9087,4.99625c-0.86,0 -1.56,-0.7 -1.56,-1.56v-1.22c0,-0.86 0.7,-1.56 1.56,-1.56c0.86,0 1.56,0.7 1.56,1.56v1.22c0,0.86 -0.7,1.56 -1.56,1.56zM13.1987,2.21625v1.22c0,0.39 0.32,0.7 0.71,0.7c0.39,0 0.7,-0.31 0.7,-0.7v-1.22c0,-0.39 -0.31,-0.71 -0.7,-0.71c-0.39,0 -0.71,0.32 -0.71,0.71z"></path><path id="路径 8" fill-rule="evenodd" style="fill:#000000" opacity="0.7" d="M2.07751 8.26978L18.8985 8.26978L18.8985 7.41278L2.07751 7.41278L2.07751 8.26978Z"></path><path id="路径 9" fill-rule="evenodd" style="fill:#000000" opacity="0.7" d="M10.7177 17.8212L13.2177 10.7712L13.2177 10.4312L12.9577 9.20123L7.64766 9.20123L7.34766 9.45123C7.34766 9.97123 7.35766 10.4712 7.35766 10.9812L11.0777 10.9812L8.56766 17.6112L8.56766 17.8512L10.3377 18.1012L10.7177 17.8212Z"></path></g></g><defs><rect id="path_0" x="0" y="0" width="21" height="21" /></defs></svg>