<svg xmlns="http://www.w3.org/2000/svg" xmlns:xlink="http://www.w3.org/1999/xlink" width="29" height="29" viewBox="0 0 29 29" fill="none"><g opacity="1"  transform="translate(0 0)  rotate(0)"><mask id="bg-mask-0" fill="white"><use transform="translate(0 0)  rotate(NaN)" xlink:href="#path_0"></use></mask><g mask="url(#bg-mask-0)" ><path id="路径 1" fill-rule="evenodd" style="fill:#000000" opacity="0.7" d="M23.6312 21.5128L23.6312 11.9828C23.6312 10.8128 22.6812 9.86279 21.5112 9.86279L18.4212 9.86279C18.0312 9.86279 17.7212 10.1728 17.7212 10.5628C17.7212 10.9528 18.0312 11.2728 18.4212 11.2728L21.5112 11.2728C21.9012 11.2728 22.2212 11.5928 22.2212 11.9828L22.2212 21.5128C22.2212 21.9028 21.9012 22.2228 21.5112 22.2228L7.49122 22.2228C7.10122 22.2228 6.78122 21.9028 6.78122 21.5128L6.78122 11.9828C6.78122 11.5928 7.10122 11.2728 7.49122 11.2728L10.5712 11.2728C10.9512 11.2728 11.2712 10.9528 11.2712 10.5628C11.2712 10.1728 10.9512 9.86279 10.5712 9.86279L7.49122 9.86279C6.32122 9.86279 5.37122 10.8128 5.37122 11.9828L5.37122 21.5128C5.37122 22.6828 6.32122 23.6328 7.49122 23.6328L21.5112 23.6328C22.6812 23.6328 23.6312 22.6828 23.6312 21.5128Z"></path><path id="路径 2" fill-rule="evenodd" style="fill:#000000" opacity="0.7" d="M20.8944 14.2161C20.8944 13.8261 20.5844 13.5161 20.1944 13.5161L8.80443 13.5161C8.41443 13.5161 8.10443 13.8261 8.10443 14.2161C8.10443 14.6061 8.41443 14.9261 8.80443 14.9261L20.1944 14.9261C20.5844 14.9261 20.8944 14.6061 20.8944 14.2161Z"></path><path id="路径 3" fill-rule="evenodd" style="fill:#000000" opacity="0.7" d="M17.6498,14.9311h-6.3c-0.7,0 -1.27,-0.57 -1.27,-1.27v-7.04003c0,-0.7 0.57,-1.27 1.27,-1.27h6.3c0.7,0 1.27,0.57 1.27,1.27v7.04003c0,0.7 -0.57,1.27 -1.27,1.27zM17.5098,13.5211v-6.76003h-6.02v6.76003z"></path><path id="路径 4" fill-rule="evenodd" style="fill:#1F71FF" opacity="0.9" d="M16.7225 9.56365C16.9925 9.29365 16.9925 8.84365 16.7225 8.57365C16.4425 8.29365 16.0025 8.29365 15.7225 8.57365L14.0325 10.2636L13.2225 9.60365C12.9225 9.36365 12.4725 9.40365 12.2325 9.70365C11.9825 10.0036 12.0325 10.4536 12.3325 10.6936L14.1225 12.1636L16.7225 9.56365Z"></path></g></g><defs><rect id="path_0" x="0" y="0" width="29" height="29" /></defs></svg>