<svg xmlns="http://www.w3.org/2000/svg" xmlns:xlink="http://www.w3.org/1999/xlink" width="22" height="21" viewBox="0 0 22 21" fill="none"><g opacity="1"  transform="translate(0 0)  rotate(0)"><mask id="bg-mask-0" fill="white"><use transform="translate(0 0)  rotate(NaN)" xlink:href="#path_0"></use></mask><g mask="url(#bg-mask-0)" ><path id="路径 1" fill-rule="evenodd" style="fill:#000000" opacity="0.7" d="M15.57,0.02991c2.45,0 4.47,1.92 4.57,4.35l0.01,0.19v12.03999l0.67,-0.19c0.47,-0.12 0.95,0.14 1.11,0.59c0.15,0.46 -0.08,0.95 -0.52,1.13l-0.11,0.04l-10.31,2.79l-10.31,-2.79c-0.47,-0.13 -0.76,-0.6 -0.66,-1.07c0.1,-0.47 0.55,-0.78 1.04,-0.71l0.1,0.02l0.67,0.19v-12.03999c0,-2.43 1.93,-4.43 4.38,-4.54h0.2zM6.41,1.84991c-1.45,0 -2.65,1.12 -2.74,2.56v0.16v12.52999l7.32,1.98l7.33,-1.98v-12.52999c0,-1.44 -1.14,-2.63 -2.59,-2.72h-0.16z"></path><path id="路径 2" fill-rule="evenodd" style="fill:#1F71FF" opacity="0.9" d="M11.9094 6.39282L10.0794 6.39282L9.15942 6.82282L9.15942 8.21282L10.0794 8.21282L10.0794 13.6628L11.9094 13.6628L11.9094 6.39282Z"></path></g></g><defs><rect id="path_0" x="0" y="0" width="22" height="21" /></defs></svg>