<svg xmlns="http://www.w3.org/2000/svg" xmlns:xlink="http://www.w3.org/1999/xlink" width="40" height="40" viewBox="0 0 40 40" fill="none"><g opacity="1"  transform="translate(0 0)  rotate(0)"><mask id="bg-mask-0" fill="white"><use transform="translate(0 0)  rotate(NaN)" xlink:href="#path_0"></use></mask><g mask="url(#bg-mask-0)" ><path id="路径 1" fill-rule="evenodd" style="fill:#333333" opacity="0.3" d="M12.4034 9.59998C11.1334 9.59998 10.1334 10.8 10.1334 12.2L10.1334 30.33C10.1334 31.8 11.1334 32.93 12.4034 32.93L28.1334 32.93C29.4034 32.93 30.4034 31.73 30.4034 30.33L30.4034 12.2C30.3334 10.73 29.3334 9.59998 28.0634 9.59998L12.4034 9.59998Z"></path><path id="路径 2" fill-rule="evenodd" style="fill:#333333" opacity="1" d="M32.4033,33.4034h-19.47c-2,0 -3.59999,-1.6 -3.59999,-3.6v-24.87003c0,-2 1.59999,-3.6 3.59999,-3.6h12.4c0.53,0 1,0.47 1,1v9.27003c0,0.2 0.13,0.33 0.33,0.33h8.4c0.54,0 1,0.47 1,1v16.8c-0.06,2 -1.66,3.67 -3.66,3.67zM11.3333,4.93337v24.80003c0,0.87 0.73,1.6 1.6,1.6h19.47c0.86,0 1.6,-0.73 1.6,-1.6v-15.8h-7.4c-1.27,0 -2.34,-1.07 -2.34,-2.33v-8.27003h-11.33c-0.87,0 -1.6,0.73 -1.6,1.6z"></path><path id="路径 3" fill-rule="evenodd" style="fill:#333333" opacity="1" d="M35,13.9313c-0.27,0 -0.53,-0.13 -0.73,-0.33l-9.74,-10.6c-0.4,-0.4 -0.33,-1.07 0.07,-1.4c0.4,-0.4 1.07,-0.33 1.4,0.07l9.73,10.6c0.4,0.4 0.34,1.06 -0.06,1.4c-0.14,0.2 -0.4,0.26 -0.67,0.26zM23.53,38.6713h-15.93c-2,0 -3.6,-1.6 -3.6,-3.6v-18.6c0,-0.54 0.47,-1 1,-1c0.53,0 1,0.46 1,1v18.6c0,0.86 0.73,1.6 1.6,1.6h15.93c0.54,0 1,0.46 1,1c0,0.53 -0.46,1 -1,1zM19.13,17.4713h-3.53c-0.53,0 -1,-0.47 -1,-1c0,-0.54 0.47,-1 1,-1h3.53c0.54,0 1,0.46 1,1c0,0.53 -0.46,1 -1,1zM26.2,24.5313h-10.6c-0.53,0 -1,-0.46 -1,-1c0,-0.53 0.47,-1 1,-1h10.6c0.53,0 1,0.47 1,1c0,0.54 -0.47,1 -1,1z"></path></g></g><defs><rect id="path_0" x="0" y="0" width="40" height="40" /></defs></svg>