<svg xmlns="http://www.w3.org/2000/svg" xmlns:xlink="http://www.w3.org/1999/xlink" width="21" height="21" viewBox="0 0 21 21" fill="none"><g opacity="1"  transform="translate(0 0)  rotate(0)"><mask id="bg-mask-0" fill="white"><use transform="translate(0 0)  rotate(NaN)" xlink:href="#path_0"></use></mask><g mask="url(#bg-mask-0)" ><path id="路径 1" fill-rule="evenodd" style="fill:#000000" opacity="0.7" d="M11.4031,3.06548c-0.12,-0.01 -0.23,0.02 -0.33,0.1c-0.03,0.04 -0.05,0.09 -0.05,0.14c0.09,1.58 -0.43,3.14 -1.43995,4.37c-0.51001,0.62 -1.25,0.99 -2.05001,1.01c-0.73,0.01 -1.97,0.01 -2.73,0.01h-1.07c-0.25,0 -0.45,0.2 -0.45,0.45v8.35002c0,0.24 0.2,0.44 0.45,0.44h11.34996c0.93,0 1.73,-0.67 1.87,-1.6l0.73,-4.57c0.09,-0.55 -0.07,-1.11 -0.43,-1.53c-0.36,-0.42002 -0.89,-0.66002 -1.44,-0.66002h-4.05l0.69,-1.79c0.61,-1.57 0.3,-4.23 -0.22,-4.5c-0.25,-0.13 -0.54,-0.21 -0.83,-0.22zM11.4031,1.74548v0c0.49,0.02 0.96,0.14 1.39,0.36c1.54,0.72 1.56,4.41 0.89,6.15h2.13c0.94,0 1.83,0.41 2.44,1.13c0.61,0.71002 0.88,1.66002 0.73,2.59002l-0.73,4.57c-0.25,1.56 -1.6,2.7 -3.17,2.7h-11.34996c-0.97,0 -1.76,-0.78 -1.76,-1.75v-8.35002c0,-0.97 0.79,-1.76 1.76,-1.76h1.07c0.75,0 2,0 2.71,-0.01c1.35,-0.01 2.34,-2.47 2.2,-3.95c-0.02,-0.46 0.15,-0.9 0.46996,-1.22c0.32,-0.32 0.77,-0.49 1.22,-0.46z"></path><path id="路径 2" fill-rule="evenodd" style="fill:#1F71FF" opacity="0.9" d="M5.90625 17.94L7.21625 17.94L7.21625 8.75L5.90625 8.75L5.90625 17.94Z"></path></g></g><defs><rect id="path_0" x="0" y="0" width="21" height="21" /></defs></svg>