<svg xmlns="http://www.w3.org/2000/svg" xmlns:xlink="http://www.w3.org/1999/xlink" width="21" height="21" viewBox="0 0 21 21" fill="none"><g opacity="1"  transform="translate(0 0)  rotate(0)"><mask id="bg-mask-0" fill="white"><use transform="translate(0 0)  rotate(NaN)" xlink:href="#path_0"></use></mask><g mask="url(#bg-mask-0)" ><path id="路径 1" fill-rule="evenodd" style="fill:#000000" opacity="0.7" d="M18.2,11.9c0.77,0 1.4,0.63 1.4,1.4v4.55c0,0.77 -0.63,1.4 -1.4,1.4h-2.8c-1.16,0 -2.1,-0.94 -2.1,-2.1v-3.15c0,-1.16 0.94,-2.1 2.1,-2.1zM14.7,14v3.15c0,0.39 0.31,0.7 0.7,0.7h2.8v-4.55h-2.8c-0.39,0 -0.7,0.31 -0.7,0.7zM5.60002,11.9c1.16,0 2.1,0.94 2.1,2.1v3.15c0,1.16 -0.94,2.1 -2.1,2.1h-2.8c-0.77,0 -1.4,-0.63 -1.4,-1.4v-4.55c0,-0.77 0.63,-1.4 1.4,-1.4zM2.80002,17.85h2.8c0.39,0 0.7,-0.31 0.7,-0.7v-3.15c0,-0.39 -0.31,-0.7 -0.7,-0.7h-2.8z"></path><path id="路径 2" fill-rule="evenodd" style="fill:#000000" opacity="0.7" d="M1.40002 10.85L1.40002 15.05L1.40002 15.1C1.43002 15.48 1.75002 15.77 2.13002 15.75C2.50002 15.74 2.80002 15.43 2.80002 15.05L2.80002 10.85L2.80002 10.72C2.87002 6.55 6.31002 3.15 10.5 3.15C14.73 3.15 18.2 6.62 18.2 10.85L18.2 15.05L18.2 15.1C18.23 15.48 18.55 15.77 18.93 15.75C19.3 15.74 19.6 15.43 19.6 15.05L19.6 10.85L19.6 10.7C19.52 5.76 15.46 1.75 10.5 1.75C5.49002 1.75 1.40002 5.84 1.40002 10.85Z"></path><path id="路径 3" fill-rule="evenodd" style="fill:#1F71FF" opacity="0.9" d="M13.34 6.42995C13.24 6.70995 13.34 7.02995 13.58 7.20995L13.68 7.27995C14.69 8.09995 15.25 9.37995 15.25 10.86L16.65 10.86L16.65 10.72C16.6101 8.81995 15.83 7.14995 14.42 6.08995L14.38 6.05995C14.27 5.98995 14.14 5.94995 14 5.94995C13.7 5.94995 13.43 6.13995 13.34 6.42995Z"></path></g></g><defs><rect id="path_0" x="0" y="0" width="21" height="21" /></defs></svg>