<svg xmlns="http://www.w3.org/2000/svg" xmlns:xlink="http://www.w3.org/1999/xlink" width="21" height="21" viewBox="0 0 21 21" fill="none"><g opacity="1"  transform="translate(0 0)  rotate(0)"><path id="矩形 5" fill-rule="evenodd" style="fill:#CCCCCC" opacity="0" d="M0 21L21 21L21 0L0 0L0 21Z"></path><g opacity="1"  transform="translate(1 1)  rotate(0)"><mask id="bg-mask-0" fill="white"><use transform="translate(0 0)  rotate(0)" xlink:href="#path_0"></use></mask><g mask="url(#bg-mask-0)" ><path id="路径 1" fill-rule="evenodd" style="fill:#444444" opacity="1" d="M13.2582 19C13.6382 19 13.9882 18.8 14.1782 18.47C14.3682 18.14 14.3682 17.74 14.1782 17.41C13.9882 17.09 13.6382 16.88 13.2582 16.88L4.5882 16.88C3.4382 16.88 2.4982 15.94 2.4982 14.79L2.4982 4.21C2.4982 3.06 3.4382 2.12 4.5882 2.12L14.4082 2.12C15.5682 2.12 16.4982 3.06 16.5082 4.21L16.5082 14.89C16.5082 15.27 16.7082 15.62 17.0382 15.81C17.3582 16 17.7682 16 18.0882 15.81C18.4182 15.62 18.6182 15.27 18.6182 14.89L18.6182 4.21C18.6182 1.89 16.7382 0 14.4082 0L4.5882 0C2.2682 0 0.378204 1.89 0.378204 4.21L0.378204 14.79C0.378204 17.11 2.2682 19 4.5882 19L13.2582 19L13.2582 19Z"></path><path id="路径 2" fill-rule="evenodd" style="fill:#D75B5B" opacity="1" d="M5.04355 5.68627L5.04355 5.68627C5.04355 6.18627 5.29355 6.43627 5.80355 6.43627L12.8135 6.43627C13.3135 6.43627 13.5635 6.18627 13.5635 5.68627L13.5635 5.68627C13.5635 5.17627 13.3135 4.92627 12.8135 4.92627L5.80355 4.92627C5.29355 4.92627 5.04355 5.17627 5.04355 5.68627Z"></path><path id="路径 3" fill-rule="evenodd" style="fill:#D75B5B" opacity="1" d="M9.30898 5.44604L9.30898 5.44604C8.79898 5.44604 8.54898 5.69604 8.54898 6.20604L8.54898 13.216C8.54898 13.716 8.79898 13.966 9.30898 13.966L9.30898 13.966C9.80898 13.966 10.059 13.716 10.059 13.216L10.059 6.20604C10.059 5.69604 9.80898 5.44604 9.30898 5.44604Z"></path></g></g></g><defs><rect id="path_0" x="0" y="0" width="19" height="19" rx="0" ry="0"/></defs></svg>