<svg xmlns="http://www.w3.org/2000/svg" xmlns:xlink="http://www.w3.org/1999/xlink" width="21" height="21" viewBox="0 0 21 21" fill="none"><g opacity="1"  transform="translate(0 0)  rotate(0)"><mask id="bg-mask-0" fill="white"><use transform="translate(0 0)  rotate(NaN)" xlink:href="#path_0"></use></mask><g mask="url(#bg-mask-0)" ><path id="路径 1" fill-rule="evenodd" style="fill:#444444" opacity="1" d="M18.2 11.8999L15.4 11.8999C14.2402 11.8999 13.3 12.8401 13.3 13.9999L13.3 17.1499C13.3 18.3097 14.2402 19.2499 15.4 19.2499L18.2 19.2499C18.9732 19.2499 19.6 18.6231 19.6 17.8499L19.6 13.2999C19.6 12.5267 18.9732 11.8999 18.2 11.8999ZM15.4 13.2999L18.2 13.2999L18.2 17.8499L15.4 17.8499C15.0134 17.8499 14.7 17.5365 14.7 17.1499L14.7 13.9999C14.7 13.6133 15.0134 13.2999 15.4 13.2999ZM5.59999 11.8999L2.79999 11.8999C2.0268 11.8999 1.39999 12.5267 1.39999 13.2999L1.39999 17.8499C1.39999 18.6231 2.0268 19.2499 2.79999 19.2499L5.59999 19.2499C6.75979 19.2499 7.69999 18.3097 7.69999 17.1499L7.69999 13.9999C7.69999 12.8401 6.75979 11.8999 5.59999 11.8999ZM2.79999 13.2999L5.59999 13.2999C5.98659 13.2999 6.29999 13.6133 6.29999 13.9999L6.29999 17.1499C6.29999 17.5365 5.98659 17.8499 5.59999 17.8499L2.79999 17.8499L2.79999 13.2999Z"></path><path id="路径 2" fill-rule="evenodd" style="fill:#444444" opacity="1" d="M1.39999 10.85L1.39999 15.05L1.39999 15.1C1.42999 15.48 1.74999 15.77 2.12999 15.75C2.49999 15.74 2.79999 15.43 2.79999 15.05L2.79999 10.85L2.79999 10.72C2.86999 6.55 6.30999 3.15 10.5 3.15C14.73 3.15 18.2 6.62 18.2 10.85L18.2 15.05L18.2 15.1C18.23 15.48 18.55 15.77 18.93 15.75C19.3 15.74 19.6 15.43 19.6 15.05L19.6 10.85L19.6 10.7C19.52 5.76 15.46 1.75 10.5 1.75C5.48999 1.75 1.39999 5.84 1.39999 10.85Z"></path><path id="路径 3" fill-rule="evenodd" style="fill:#D75B5B" opacity="1" d="M13.3401 6.42995C13.2401 6.70995 13.3401 7.02995 13.5801 7.20995L13.6801 7.27995C14.6901 8.09995 15.2501 9.37995 15.2501 10.86L16.6501 10.86L16.6501 10.72C16.6101 8.81995 15.8301 7.14995 14.4201 6.08995L14.3801 6.05995C14.2701 5.98995 14.1401 5.94995 14.0001 5.94995C13.7001 5.94995 13.4301 6.13995 13.3401 6.42995Z"></path></g></g><defs><rect id="path_0" x="0" y="0" width="21" height="21" rx="0" ry="0"/></defs></svg>