<svg xmlns="http://www.w3.org/2000/svg" xmlns:xlink="http://www.w3.org/1999/xlink" width="21" height="21" viewBox="0 0 21 21" fill="none"><g opacity="1"  transform="translate(0 0)  rotate(0)"><mask id="bg-mask-0" fill="white"><use transform="translate(0 0)  rotate(NaN)" xlink:href="#path_0"></use></mask><g mask="url(#bg-mask-0)" ><path id="路径 1" fill-rule="evenodd" style="fill:#444444" opacity="1" d="M11.0526 8.28944L11.0526 6.0789L12.7105 6.0789L12.7105 8.28944L14.3684 8.28944L14.3684 9.94733L11.0526 9.94733L11.0526 11.6052L14.3684 11.6052L14.3684 13.2631L11.0526 13.2631L11.0526 15.4736L9.39473 15.4736L9.39473 13.2631L6.07894 13.2631L6.07894 11.6052L9.39473 11.6052L9.39473 9.94733L6.07894 9.94733L6.07894 8.28944L7.73684 8.28944L7.73684 6.0789L9.39473 6.0789L9.39473 8.28944L11.0526 8.28944ZM2.43488 15.3206L2.15801 16.0263L0.500122 16.0263L1.51807 13.2631L3.27101 13.2631C4.38348 16.1716 7.20023 18.2368 10.5 18.2368C14.7729 18.2368 18.2368 14.7729 18.2368 10.5L19.8947 10.5C19.8947 15.6886 15.6887 19.8947 10.5 19.8947C7.07368 19.8947 4.07621 18.0605 2.43488 15.3206ZM19.4836 7.73679L17.729 7.73679C16.6165 4.82829 13.7992 2.76312 10.5 2.76312C6.22705 2.76312 2.76316 6.22701 2.76316 10.5L1.10525 10.5C1.10525 5.31129 5.31134 1.10522 10.5 1.10522C13.9285 1.10522 16.9277 2.94162 18.5684 5.68433L18.8503 4.97363L20.5082 4.97363L19.4836 7.73679Z"></path></g></g><defs><rect id="path_0" x="0" y="0" width="21" height="21" rx="0" ry="0"/></defs></svg>