<svg xmlns="http://www.w3.org/2000/svg" xmlns:xlink="http://www.w3.org/1999/xlink" width="19" height="19" viewBox="0 0 19 19" fill="none"><g opacity="1"  transform="translate(0 0)  rotate(0)"><mask id="bg-mask-0" fill="white"><use transform="translate(0 0)  rotate(NaN)" xlink:href="#path_0"></use></mask><g mask="url(#bg-mask-0)" ><path id="路径 1" fill-rule="evenodd" style="fill:#808080" opacity="1" d="M13.2582 19C13.6382 19 13.9882 18.8 14.1782 18.47C14.3682 18.14 14.3682 17.74 14.1782 17.41C13.9882 17.09 13.6382 16.88 13.2582 16.88L4.58822 16.88C3.43822 16.88 2.49822 15.94 2.49822 14.79L2.49822 4.21C2.49822 3.06 3.43822 2.12 4.58822 2.12L14.4082 2.12C15.5682 2.12 16.4982 3.06 16.5082 4.21L16.5082 14.89C16.5082 15.27 16.7082 15.62 17.0382 15.81C17.3582 16 17.7682 16 18.0882 15.81C18.4182 15.62 18.6182 15.27 18.6182 14.89L18.6182 4.21C18.6182 1.89 16.7382 0 14.4082 0L4.58822 0C2.26822 0 0.37822 1.89 0.37822 4.21L0.37822 14.79C0.37822 17.11 2.26822 19 4.58822 19L13.2582 19L13.2582 19Z"></path><path id="路径 2" fill-rule="evenodd" style="fill:#1F71FF" opacity="0.9" d="M5.04353 5.68627L5.04353 5.68627C5.04353 6.18627 5.29353 6.43627 5.80353 6.43627L12.8135 6.43627C13.3135 6.43627 13.5635 6.18627 13.5635 5.68627L13.5635 5.68627C13.5635 5.17627 13.3135 4.92627 12.8135 4.92627L5.80353 4.92627C5.29353 4.92627 5.04353 5.17627 5.04353 5.68627Z"></path><path id="路径 3" fill-rule="evenodd" style="fill:#1F71FF" opacity="0.9" d="M9.30898 5.44608L9.30898 5.44608C8.79898 5.44608 8.54898 5.69608 8.54898 6.20608L8.54898 13.2161C8.54898 13.7161 8.79898 13.9661 9.30898 13.9661L9.30898 13.9661C9.80898 13.9661 10.059 13.7161 10.059 13.2161L10.059 6.20608C10.059 5.69608 9.80898 5.44608 9.30898 5.44608Z"></path></g></g><defs><rect id="path_0" x="0" y="0" width="19" height="19" rx="0" ry="0"/></defs></svg>