<svg xmlns="http://www.w3.org/2000/svg" xmlns:xlink="http://www.w3.org/1999/xlink" width="20" height="20" viewBox="0 0 20 20" fill="none"><g opacity="1"  transform="translate(0 0)  rotate(0)"><mask id="bg-mask-0" fill="white"><use transform="translate(0 0)  rotate(NaN)" xlink:href="#path_0"></use></mask><g mask="url(#bg-mask-0)" ><path id="路径 1" fill-rule="evenodd" style="fill:#FFFFFF" opacity="1" d="M18.4522 17.73C18.1822 17.05 17.6622 16.5 17.0722 16.1C15.9122 15.27 14.4922 14.97 13.2722 14.26C12.8622 14.01 12.4522 13.68 12.2922 13.2C12.2222 12.57 12.2422 11.93 12.2422 11.3C12.2422 11.26 12.2622 11.21 12.3022 11.18C12.4922 11.02 12.6222 10.8 12.7422 10.58C13.0122 10.08 13.1922 9.53 13.2722 8.96C13.2822 8.95 13.2922 8.93 13.3022 8.93C13.4922 8.88 13.6522 8.77 13.7622 8.6C13.9722 8.28 14.0522 7.89 14.0822 7.52C14.1222 7.2 14.0022 6.87 13.7622 6.67C13.7422 6.65 13.7322 6.62 13.7422 6.59C14.0622 5.51 14.2722 4.38 14.1622 3.25C14.0922 2.56 13.8622 1.86 13.3522 1.39C13.0022 1.06 12.5422 0.89 12.0822 0.82C11.9622 0.65 11.8222 0.49 11.6522 0.39C11.1722 0.09 10.6022 0.01 10.0522 0C9.0822 0.02 8.0622 0.18 7.2622 0.78C6.8622 1.07 6.5522 1.47 6.3322 1.93C6.0722 2.48 5.9622 3.1 5.9422 3.71C5.9022 4.68 6.0722 5.65 6.2922 6.59C6.3022 6.62 6.2922 6.65 6.2722 6.67C6.0522 6.86 5.9322 7.17 5.9422 7.47C5.9622 7.78 6.0222 8.09 6.1522 8.38C6.2522 8.64 6.4522 8.87 6.7322 8.94C6.7422 8.94 6.7522 8.95 6.7622 8.97C6.8322 9.51 7.0122 10.02 7.2622 10.5C7.4022 10.75 7.5422 11 7.7622 11.19C7.7922 11.22 7.8122 11.26 7.8122 11.31C7.8122 11.94 7.8422 12.58 7.7622 13.21C7.5722 13.79 7.0322 14.14 6.5222 14.41C5.4222 14.98 4.2122 15.3 3.1622 15.97C2.7022 16.26 2.2722 16.62 1.9522 17.07C1.6022 17.55 1.3322 18.47 1.2522 19.06C1.2022 19.11 5.7022 20 10.0022 20C14.3022 20 18.7622 19.08 18.7522 19.06C18.7022 18.7 18.5922 18.06 18.4522 17.73Z"></path></g></g><defs><rect id="path_0" x="0" y="0" width="20" height="20" /></defs></svg>