<svg xmlns="http://www.w3.org/2000/svg" xmlns:xlink="http://www.w3.org/1999/xlink" width="13.96466064453125" height="6.32171630859375" viewBox="0 0 13.96466064453125 6.32171630859375" fill="none"><path id="路径 1" fill-rule="evenodd" style="fill:#FFC300" opacity="1" d="M4.19883 0L2.10252 3.04622L2.10252 0.00326586L0 0.00326586L0 0.528422L0.526266 0.528422L0.526266 6.31819L2.10252 6.31819L6.31894 0.00326586L4.19883 0ZM7.37117 0.0263753L3.29516 6.32172L5.26686 6.32172L9.29192 0.0263753L7.37117 0.0263753ZM11.8868 0.0263753L10.4655 0.0263753L10.4648 0.0284219L10.4282 0.0263753L6.35216 6.32172L8.32388 6.32172L8.32611 6.31819L9.42044 6.31819L9.42044 5.79209L8.65936 5.79209L9.82486 3.95214L11.8868 3.95214C13.1866 3.95214 13.9647 3.05909 13.9647 1.98923C13.9647 0.919375 13.1866 0.0263753 11.8868 0.0263753ZM11.8249 2.84689L10.525 2.84689L11.6171 1.12275L11.8249 1.12275C12.382 1.12275 12.7357 1.47642 12.7357 1.98925C12.7357 2.50205 12.382 2.84689 11.8249 2.84689Z"></path></svg>